<svg xmlns="http://www.w3.org/2000/svg" id="Penn_State_Logo" data-name="Penn State Logo" viewBox="0 0 169.26 114.04"><defs><style>.cls-1{fill:#fff;}.cls-2{fill:#1e407c;}.cls-3{fill:#8cbee6;}</style></defs><title>PSU_VER1_RGB_REV_2C</title><g id="_Group_" data-name="&lt;Group&gt;"><g id="_Group_2" data-name="&lt;Group&gt;"><path id="_Compound_Path_" data-name="&lt;Compound Path&gt;" class="cls-1" d="M121.31,114.74c-16.37-9.73-37-23.88-37-48.85V39.51c7.55-2.86,19.21-6.43,37-6.43,18,0,30.35,3.89,37,6.43V65.89C158.31,91.07,136.87,105.59,121.31,114.74Z" transform="translate(-36.7 -33.08)"/></g><g id="_Group_3" data-name="&lt;Group&gt;"><path id="_Compound_Path_2" data-name="&lt;Compound Path&gt;" class="cls-2" d="M132.44,80.59c0-.56.46-1.43,0.46-2.21s-1.13-1.22-2-1.34c-1.85-.26-2.47-0.17-2.47-0.58A2.41,2.41,0,0,1,129,75.4a3.57,3.57,0,0,1,2.31-1.07,20.13,20.13,0,0,1,2.85-.23,15.86,15.86,0,0,1,2.77.27c1.13,0.2,1.31.67,1.31,1.2v0.53c0,0.54-.44.81-1.23,1l-0.61.12a1.72,1.72,0,0,0-1.54,1c-0.54,1.56-1.48,2.77-2.18,2.74A0.29,0.29,0,0,1,132.44,80.59Zm1.63-25.06a0.44,0.44,0,0,1-.31-0.36,2.21,2.21,0,0,1,.6-1.1c0.93-1.24,2.2-2.77,2.67-2.77a0.89,0.89,0,0,1,.65.69,3.13,3.13,0,0,1,.31,1.35,6.92,6.92,0,0,1-1.45,4.12A12.13,12.13,0,0,0,134.07,55.53Zm-27.19,3.08a2.06,2.06,0,0,0,1.36-1c1.41-1.55,2.76-1.76,2.76-2.43a1.82,1.82,0,0,0-.39-0.9,59.42,59.42,0,0,1-3-5.31,1.69,1.69,0,0,0-1.07-1,2.09,2.09,0,0,0-1.38,1.12,4.88,4.88,0,0,0-.89,2.3,16.23,16.23,0,0,0,.75,4.52C105.51,57.36,106.25,58.61,106.88,58.61ZM123.78,64a2.82,2.82,0,0,0-3-2.38,3.66,3.66,0,0,0-3.31,2.27,3.46,3.46,0,0,0,2.41,2.1c0.21,0.06.43,0.07,0.43,0.25s-0.27.39-.85,0.39a4.17,4.17,0,0,1-3.41-1.38,13.34,13.34,0,0,1-1.71.28,0.75,0.75,0,0,1-.82-0.86,2.48,2.48,0,0,1,.29-1.07l0.3-.6a5.45,5.45,0,0,1,2.39-2.75l1-.57a4.83,4.83,0,0,1,2.79-.69h0.83a3.67,3.67,0,0,1,2.64.88c1.21,1,1.88,1.57,1.88,2.33a3.34,3.34,0,0,1-.72,2.37,3,3,0,0,1-2,1.26,0.17,0.17,0,0,1-.2-0.17,0.48,0.48,0,0,1,.26-0.28A3.18,3.18,0,0,0,123.78,64ZM131.91,90a15.17,15.17,0,0,1-3.71.23c-4.2,0-4.91-1-4.91-1.85,0-1.37,6-2.33,8.39-2.33S135,86.74,135,87.3,133.93,89.47,131.91,90Zm-24.23,12.3a132.9,132.9,0,0,0,13.62,9.16h0c0-4.12-.09-6.54,2.69-9.46l3.34-3.47a4.35,4.35,0,0,1,1.8-1.43c0.27,0,.39.14,0.39,0.5a8.34,8.34,0,0,0,1,3.33,4.18,4.18,0,0,0,3.07,2.38c11.93-9,21.9-20.73,21.9-37.45V41.46c-2.94-1-15-5.63-34.2-5.63S90,40.47,87.11,41.46V65.83a38.65,38.65,0,0,0,5.1,19.35c0.32-3.38,2.61-5,2.61-8.31,0-2.32-.66-3.79-0.66-5.73,0-3.51,4.74-10.74,7.2-13.68a0.66,0.66,0,0,1,.43-0.29,0.52,0.52,0,0,1,.42.29,0.86,0.86,0,0,0,.63.59,0.34,0.34,0,0,0,.37-0.39A20.52,20.52,0,0,1,102.5,52c0-2.79.65-3.38,2.38-5.08a3.84,3.84,0,0,1,2.21-1.24A2.92,2.92,0,0,1,109.27,47c1.07,1.09,2.57,3,2.81,3.33a0.32,0.32,0,0,0,.28.16c0.5,0,.91-0.15,3.06-0.15a51.17,51.17,0,0,1,12.85,1.61,22.82,22.82,0,0,0,2.3.86,0.2,0.2,0,0,0,.22-0.24,7.84,7.84,0,0,1-.41-0.78,0.47,0.47,0,0,1,.29-0.39c2.26-1.21,4.19-2.13,6-2.13,1,0,1.54.89,2,1.77a6,6,0,0,1,.7,2.55,7.86,7.86,0,0,1-1.64,4.88c0.35,0.36.84,0.9,1.14,1.26A4.06,4.06,0,0,1,140,62a8.44,8.44,0,0,1-.29,1.43,0.72,0.72,0,0,1-.6.62,0.58,0.58,0,0,1-.43-0.68c0-.07,0-0.21,0-0.24a3.67,3.67,0,0,0-3.09-3.58h-0.29a3.11,3.11,0,0,0-2.42,1,2.3,2.3,0,0,0-.75,1.69,4.67,4.67,0,0,0,.67,1.69c0.23,0.45.81,1.53,1.12,2.08a1.13,1.13,0,0,0,1,.65c1,0,1.82-.14,1.82-0.43a0.15,0.15,0,0,0-.18-0.15l-0.31,0c-1.27,0-2-1.62-2.59-3.09a2.71,2.71,0,0,1,2-1,2,2,0,0,1,2.1,2,3,3,0,0,1-.27,1.22,0.57,0.57,0,0,0-.08.23c0,0.17.22,0.21,0.57,0.29l0.5,0.13a1.48,1.48,0,0,1,.94.88c0.11,0.3.37,1,.42,1.15a8,8,0,0,1,.55,2.63,7.61,7.61,0,0,1-.38,2.58,15,15,0,0,0-.63,2.79,3.42,3.42,0,0,1,.21.46,5.45,5.45,0,0,1,.5,2.21v0.75a5.66,5.66,0,0,1-1.2,3.42c-0.49.66-1.19,1.58-1.59,2.1a1.34,1.34,0,0,1-1,.54,2.81,2.81,0,0,1-.63-0.12l-1-.25a2,2,0,0,1-1.44-1.52L133.09,83c-0.2-.52-0.32-0.86-0.64-0.86a0.92,0.92,0,0,0-.71.52,3.9,3.9,0,0,1-2.81,2.12c-0.52.13-1.59,0.35-2.18,0.48a20.29,20.29,0,0,1-3.4.62,5.45,5.45,0,0,1-.6,0,4.64,4.64,0,0,1-3.64-2.08c-2.11-2.52-1.89-2.87-2-6.27a0.74,0.74,0,0,0-.53-0.85c-0.35,0-.51.72-0.64,1.74-0.15,1.2-.43,2.44-1,2.44a3.8,3.8,0,0,1-1.32-.27l-3.68-1.23c-1.37-.45-2.67-0.81-3.2-2-0.25-.57-0.71-1.63-0.94-2.18a0.54,0.54,0,1,0-1,.18c0,0.39-.14,1.28-0.19,1.83a7.64,7.64,0,0,1-1.68,4.69c-0.46.6-.9,1.22-1.4,1.89a8,8,0,0,0-1.65,5.51c0,0.18,0,1.18,0,1.64C99.9,94.9,100.92,96.87,107.68,102.26Z" transform="translate(-36.7 -33.08)"/><path id="_Compound_Path_3" data-name="&lt;Compound Path&gt;" class="cls-3" d="M139.47,66.79h0c0.11,0.3.37,1,.42,1.15a8,8,0,0,1,.55,2.63,7.61,7.61,0,0,1-.38,2.58,15,15,0,0,0-.63,2.79c-0.11-.22-2.17-3.78-2.32-4.06a1.86,1.86,0,0,1-.29-0.9,1,1,0,0,1,.59-0.86c0.26-.17.6-0.36,0.84-0.48a2,2,0,0,0,1.31-1.93A6.11,6.11,0,0,0,139.47,66.79Zm-9,5.68a2.5,2.5,0,0,1,.21.84,1.19,1.19,0,0,1-.43,1l-0.55.49a2,2,0,0,0-.73.6,2.41,2.41,0,0,0-.59,1.06,0.24,0.24,0,0,0,.09.2,1.46,1.46,0,0,1-.57-1.19c0-.37.12-0.57,0.12-0.92a2.71,2.71,0,0,0-.13-0.76c-0.57-1.91-1.53-4.18-2.12-5.72s-1.08-2.44-1.76-2.44c-0.38,0-.72.19-1.11,0.19a3,3,0,0,0,2-1.26,3.34,3.34,0,0,0,.72-2.37,1.53,1.53,0,0,0-.43-1,11.41,11.41,0,0,1,2,3.24C128.46,67.16,129.58,70.14,130.51,72.46ZM99.81,90.89c0-.46,0-1.47,0-1.64a8,8,0,0,1,1.65-5.51c0.51-.67.94-1.29,1.4-1.89a7.64,7.64,0,0,0,1.68-4.69c0-.55.15-1.44,0.19-1.83a0.54,0.54,0,1,1,1-.18c0.23,0.55.69,1.61,0.94,2.18,0.53,1.21,1.84,1.57,3.2,2l3.68,1.23a3.8,3.8,0,0,0,1.32.27c0.59,0,.87-1.25,1-2.44,0.13-1,.28-1.74.64-1.74a0.74,0.74,0,0,1,.53.85c0.13,3.4-.09,3.75,2,6.27a4.64,4.64,0,0,0,3.64,2.08,1.7,1.7,0,0,1-1-1.78V82.85a4.67,4.67,0,0,1,.38-1.93c0.14-.33.31-0.93,0.47-1.29a2.06,2.06,0,0,0,.14-1.22,7.09,7.09,0,0,0-.52-2c-0.19-.57-0.44-1.4-0.69-2.08-0.76-2.13-1.07-2.63-3.62-3l-5.14-.72c-2.86-.41-5.1-0.54-6.26-2.46-1.39-2.29-1.25-5.08-2.59-5.08-0.64,0-1,.71-1,1.75s0.41,2.85.41,5.92c0,2.65-.25,3.39-1.79,5.34-0.4.51-.94,1.25-1.29,1.68-1.15,1.44-1.66,2.26-1.59,3.94A57.22,57.22,0,0,0,99.81,90.89ZM129,101.12c0.1-1.06.57-2.83,0.57-3.56h0c0-.36-0.12-0.5-0.39-0.5a4.35,4.35,0,0,0-1.8,1.43L124,102c-2.79,2.91-2.65,5.34-2.69,9.46h0c3.1-1.87,5.93-3.66,8-5.09A16.4,16.4,0,0,1,129,101.12Z" transform="translate(-36.7 -33.08)"/></g></g><g id="_Group_4" data-name="&lt;Group&gt;"><path id="_Compound_Path_4" data-name="&lt;Compound Path&gt;" class="cls-1" d="M193.35,138.75H206c-0.06-6.48-3.17-10.2-8.57-10.2s-8.92,3.68-8.92,9.37c0,2.16.7,9.2,9.75,9.2a16.56,16.56,0,0,0,6.5-1.08v-3.35a13.62,13.62,0,0,1-5.43,1.06C195.77,143.74,193.5,141.71,193.35,138.75Zm-17.83-6.61H178V142.2c0,3,2.18,4.92,5.69,4.92a15.59,15.59,0,0,0,3.81-.53V143.5a11.29,11.29,0,0,1-2,.24c-2.18,0-3-.94-3-3.36v-8.24h4.84V129h-4.84V125.1H178V129h-2.46v3.17ZM162,132.3a10.28,10.28,0,0,1,3-.57c2.65,0,3.84,1.12,3.84,3.64v1h-2.35c-6,0-9.1,1.95-9.1,5.63,0,3.09,2.31,5.08,5.88,5.08a6.68,6.68,0,0,0,5.87-2.88h0.13l0.14,2.46h5.51v-3.17H173v-8c0-4.61-2.73-6.94-8.11-6.94a15.12,15.12,0,0,0-6.69,1.8v4.32H162V132.3Zm-18.18-.16h2.46V142.2c0,3,2.18,4.92,5.69,4.92a15.58,15.58,0,0,0,3.81-.53V143.5a11.79,11.79,0,0,1-2,.24c-2.18,0-3-.94-3-3.36v-8.24h4.84V129h-4.84V125.1h-4.49V129H143.8v3.17Zm-15.07,10.66v-3.08h-4.22v6.1a23.92,23.92,0,0,0,8.07,1.3c6,0,9.32-2.67,9.32-7.52s-3.61-6.28-7-7.18l-2.4-.63c-2-.49-3-1.55-3-3.13s1.27-3.06,4.12-3.06a9.12,9.12,0,0,1,3,.61v2.91h4.22v-5.48a21.46,21.46,0,0,0-7.38-1.22c-5.73,0-8.89,2.38-8.89,6.71,0,3.86,1.8,5.93,6.21,7.12l2.07,0.57c2.9,0.78,4.08,1.83,4.08,3.62,0,2-1.42,3.08-4,3.08A18.44,18.44,0,0,1,128.73,142.81Zm-66.36-4.06H75c-0.06-6.48-3.17-10.2-8.57-10.2s-8.92,3.68-8.92,9.37c0,2.16.7,9.2,9.75,9.2a16.56,16.56,0,0,0,6.5-1.08v-3.35a13.62,13.62,0,0,1-5.43,1.06C64.79,143.74,62.51,141.72,62.37,138.75Zm27.26,8h8.54v-3.17H96.09v-7.94c0-4.27-2.68-7-6.82-7a6.49,6.49,0,0,0-5.68,2.79H83.47L83.34,129H77v3.17h2.35v11.39h-2v3.17H86v-3.17H83.88v-7.11c0-2.59,1.4-4.08,3.85-4.08s3.87,1.49,3.87,4.08v7.11h-2v3.17Zm-52.93,0h9.47v-3.17H43.78v-6.17h3.86c5.46,0,8.72-2.71,8.72-7.26s-3.26-7.26-8.72-7.26H36.7V126h2.39v17.51H36.7v3.17Zm128-2.76c-2.1,0-2.84-1.27-2.84-2.36,0-1.8,1.6-2.56,5.37-2.56h1.53v0.18C168.7,142.47,166.6,143.95,164.65,143.95Zm28.66-8.16c0.16-2.58,1.65-4.26,3.9-4.26,2.41,0,3.84,1.53,3.84,4.09v0.18h-7.74Zm-131,0c0.21-2.68,1.65-4.26,3.89-4.26,2.41,0,3.84,1.53,3.84,4.09v0.18H62.33Zm-15.21-1.59H43.78V126H47c2.73,0,4.42,1.57,4.42,4.09S49.8,134.19,47.12,134.19Zm65.67,12.51h8.54v-3.17h-2.08v-7.94c0-4.27-2.68-7-6.82-7a6.49,6.49,0,0,0-5.68,2.79h-0.11L106.49,129h-6.3v3.17h2.35v11.39h-2v3.17h8.54v-3.17H107v-7.11c0-2.59,1.4-4.08,3.85-4.08s3.87,1.49,3.87,4.08v7.11h-2v3.17Z" transform="translate(-36.7 -33.08)"/></g></svg>