<svg version="1.1" id="Layer_1" xmlns="http://www.w3.org/2000/svg" xmlns:xlink="http://www.w3.org/1999/xlink" x="0px" y="0px"
	 width="100%" viewBox="0 0 300 300" enable-background="new 0 0 300 300" xml:space="preserve">
<path fill="#000000" opacity="1.000000" stroke="none" 
	d="
M173.000000,301.000000 
	C115.333344,301.000000 58.166687,301.000000 1.000023,301.000000 
	C1.000015,201.000031 1.000015,101.000053 1.000008,1.000063 
	C100.999947,1.000042 200.999893,1.000042 300.999878,1.000021 
	C300.999939,100.999939 300.999939,200.999878 300.999969,300.999908 
	C258.500000,301.000000 216.000000,301.000000 173.000000,301.000000 
M75.337662,184.119064 
	C76.362640,184.962677 77.302193,185.947845 78.426773,186.626373 
	C84.688087,190.404251 93.852142,188.703461 98.134651,183.038239 
	C102.792259,176.876831 101.982948,169.679062 96.045860,164.461334 
	C90.347015,159.452988 81.171883,159.604263 75.733307,164.796234 
	C70.347832,169.937531 70.019173,177.163879 75.337662,184.119064 
M39.003731,175.496490 
	C39.003731,179.598999 39.003731,183.701508 39.003731,188.092529 
	C43.230801,188.092529 47.010738,188.192841 50.783470,188.070679 
	C57.632912,187.848862 62.769608,183.354462 63.793598,176.853622 
	C64.811340,170.392426 60.867260,163.691803 54.191853,162.109085 
	C49.371452,160.966217 44.246605,161.107422 39.003731,160.653992 
	C39.003731,165.912857 39.003731,170.207153 39.003731,175.496490 
M191.995255,135.455536 
	C191.995255,138.229507 191.995255,141.003464 191.995255,143.769043 
	C194.238159,143.769043 195.980179,143.769043 198.083984,143.769043 
	C198.083984,140.781113 198.083984,138.022644 198.083984,135.264191 
	C198.564880,134.924271 199.045776,134.584351 199.526657,134.244431 
	C201.250977,136.023315 203.398514,137.556107 204.607147,139.634827 
	C206.791382,143.391525 209.492615,145.062607 214.158661,143.503159 
	C212.119736,140.434357 210.139450,137.453812 208.069382,134.338120 
	C212.312683,131.144394 213.285446,126.708572 211.511566,122.031799 
	C209.694199,117.240364 205.156662,116.801704 200.705078,116.779488 
	C197.906143,116.765518 195.107086,116.776886 191.995255,116.776886 
	C191.995255,122.894775 191.995255,128.679764 191.995255,135.455536 
M136.979340,180.416367 
	C136.979340,173.991776 136.979340,167.567184 136.979340,160.947479 
	C134.623672,161.055817 132.883820,161.135834 130.764191,161.233322 
	C130.764191,166.609421 130.764191,171.630157 130.764191,177.078278 
	C124.033195,171.326599 117.760948,165.966919 111.113800,160.286896 
	C111.113800,170.164642 111.113800,179.061264 111.113800,188.198868 
	C113.010643,188.079742 114.566780,187.982010 116.405457,187.866531 
	C116.405457,182.684631 116.405457,177.974289 116.405457,172.548538 
	C123.379433,178.424408 129.816879,183.848221 136.979340,189.882889 
	C136.979340,186.287247 136.979340,183.833878 136.979340,180.416367 
M105.881859,133.079895 
	C109.660316,133.079895 113.438782,133.079895 117.325928,133.079895 
	C117.325928,131.088348 117.325928,129.678116 117.325928,127.775436 
	C113.183685,127.775436 109.269020,127.775436 105.224304,127.775436 
	C105.224304,125.678085 105.224304,124.075089 105.224304,121.926842 
	C109.887352,121.926842 114.437599,121.926842 119.134964,121.926842 
	C119.022377,119.913490 118.940712,118.453194 118.860077,117.011360 
	C112.196091,117.011360 105.767036,117.011360 99.319901,117.011360 
	C99.319901,126.059540 99.319901,134.825958 99.319901,143.722824 
	C106.254997,143.722824 112.980698,143.722824 119.915184,143.722824 
	C119.827583,142.013474 119.755394,140.604782 119.655792,138.661270 
	C114.613495,138.661270 109.897736,138.661270 105.130035,138.661270 
	C105.130035,136.610153 105.130035,135.115509 105.881859,133.079895 
M167.552460,116.749893 
	C165.793900,116.749893 164.035339,116.749893 162.363525,116.749893 
	C162.363525,126.188492 162.363525,135.067169 162.363525,143.789490 
	C169.182571,143.789490 175.636551,143.789490 182.474854,143.789490 
	C182.396851,142.045654 182.329285,140.535202 182.249313,138.747269 
	C177.235107,138.747269 172.781342,138.747269 168.258331,138.747269 
	C168.258331,136.712555 168.258331,134.988266 168.258331,132.929779 
	C172.280365,132.929779 176.057785,132.929779 179.834946,132.929779 
	C179.834946,131.050339 179.834946,129.535950 179.834946,127.655640 
	C175.723969,127.655640 171.959412,127.655640 168.147659,127.655640 
	C168.147659,125.664024 168.147659,124.046776 168.147659,122.044861 
	C172.705597,122.044861 177.138504,122.044861 181.714569,122.044861 
	C181.714569,120.110168 181.714569,118.570854 181.714569,116.749901 
	C177.144241,116.749901 172.840164,116.749901 167.552460,116.749893 
M153.796890,178.632263 
	C154.808517,178.117645 155.794495,177.231125 156.836655,177.159241 
	C159.775574,176.956528 162.737579,177.088409 166.019440,177.088409 
	C165.928452,175.107025 165.858688,173.587860 165.776047,171.788147 
	C161.497253,171.788147 157.717789,171.788147 153.719437,171.788147 
	C153.839249,169.729385 153.939987,167.998215 154.063446,165.876587 
	C158.886353,165.876587 163.306534,165.876587 167.965240,165.876587 
	C167.834579,164.034821 167.735489,162.638168 167.643539,161.342285 
	C160.870193,161.342285 154.480942,161.342285 147.989212,161.342285 
	C147.989212,165.995285 147.989243,170.314743 147.989227,174.634201 
	C147.989227,179.068451 147.989212,183.502716 147.989212,187.890686 
	C154.979156,187.890686 161.397217,187.890686 167.910004,187.890686 
	C167.910004,186.229858 167.910004,184.817429 167.910004,183.012451 
	C164.102020,183.012451 160.456940,182.786026 156.854919,183.082687 
	C153.868011,183.328705 153.519424,181.875015 153.796890,178.632263 
M37.333611,132.095428 
	C40.084446,143.574188 50.296822,147.742142 60.814697,141.570038 
	C60.039692,140.039536 59.261818,138.503372 58.488026,136.975266 
	C52.205410,139.964630 48.149658,139.672348 45.221172,135.840225 
	C42.678078,132.512421 42.515625,128.913727 44.952339,125.381592 
	C47.671368,121.440201 51.651878,120.823799 58.105198,123.525406 
	C58.812031,121.978485 59.525600,120.416817 60.232769,118.869156 
	C48.094177,112.701958 38.417427,118.081543 37.333611,132.095428 
M130.741760,124.851387 
	C133.806183,131.514648 136.870605,138.177917 140.182449,145.379181 
	C144.732483,135.499069 148.936844,126.369545 153.170792,117.175812 
	C148.376526,115.859604 145.585403,116.877266 144.416046,121.682297 
	C143.644684,124.851921 141.945129,127.795670 140.321594,131.645798 
	C138.637253,127.700798 136.998474,124.642700 136.018631,121.386322 
	C134.515350,116.390320 131.429276,115.860519 127.151207,117.223366 
	C128.288116,119.740517 129.299515,121.979767 130.741760,124.851387 
M259.069000,126.754036 
	C258.358459,126.916542 257.137451,127.390488 257.016968,127.193001 
	C255.901810,125.365067 254.756485,123.499886 254.040527,121.495285 
	C252.409851,116.929466 249.449646,115.659035 244.818741,117.288338 
	C248.140533,126.290329 256.763000,133.047821 255.001755,143.708710 
	C257.171600,143.708710 258.893005,143.708710 261.060974,143.708710 
	C258.678284,132.600143 267.781982,126.004128 270.930908,117.110588 
	C266.205383,115.793304 263.123199,117.028481 261.690948,121.732109 
	C261.223938,123.265785 260.195496,124.628502 259.069000,126.754036 
M70.071251,142.253998 
	C71.157265,142.839264 72.226891,143.890854 73.332100,143.929688 
	C78.310616,144.104553 83.299324,144.003830 88.284042,143.963974 
	C88.740265,143.960342 89.194305,143.683670 89.561111,143.562836 
	C89.561111,142.042725 89.561111,140.641724 89.561111,138.706467 
	C84.920242,138.706467 80.537231,138.706467 75.810425,138.706467 
	C75.810425,131.099701 75.810425,124.030273 75.810425,117.053360 
	C73.696632,117.053360 71.954887,117.053360 70.068207,117.053360 
	C70.068207,125.346825 70.068207,133.319519 70.071251,142.253998 
M228.955673,117.672455 
	C227.078857,117.299957 225.202026,116.927460 223.199890,116.530090 
	C223.199890,126.126770 223.199890,134.866928 223.199890,143.718185 
	C229.614426,143.718185 235.826370,143.718185 241.900177,143.718185 
	C241.900177,142.018921 241.900177,140.604523 241.900177,138.827332 
	C237.562225,138.827332 233.476669,138.827332 228.996399,138.827332 
	C228.996399,131.860153 228.996399,125.256294 228.955673,117.672455 
z"/>
<path fill="#F8F8F8" opacity="1.000000" stroke="none" 
	d="
M75.109459,183.824646 
	C70.019173,177.163879 70.347832,169.937531 75.733307,164.796234 
	C81.171883,159.604263 90.347015,159.452988 96.045860,164.461334 
	C101.982948,169.679062 102.792259,176.876831 98.134651,183.038239 
	C93.852142,188.703461 84.688087,190.404251 78.426773,186.626373 
	C77.302193,185.947845 76.362640,184.962677 75.109459,183.824646 
M77.441711,174.543549 
	C77.910210,178.645981 79.626961,182.375473 83.916107,182.779205 
	C86.842201,183.054611 90.554459,182.034103 92.843552,180.231857 
	C95.694992,177.986877 95.931137,174.128860 93.978470,170.725388 
	C91.994339,167.267105 88.910065,165.400162 84.913605,166.106979 
	C80.797218,166.835022 78.121758,169.325562 77.441711,174.543549 
z"/>
<path fill="#F9F9F9" opacity="1.000000" stroke="none" 
	d="
M39.003731,174.998962 
	C39.003731,170.207153 39.003731,165.912857 39.003731,160.653992 
	C44.246605,161.107422 49.371452,160.966217 54.191853,162.109085 
	C60.867260,163.691803 64.811340,170.392426 63.793598,176.853622 
	C62.769608,183.354462 57.632912,187.848862 50.783470,188.070679 
	C47.010738,188.192841 43.230801,188.092529 39.003731,188.092529 
	C39.003731,183.701508 39.003731,179.598999 39.003731,174.998962 
M53.161930,182.065903 
	C57.369659,179.726501 58.849018,176.340256 57.136677,171.723831 
	C55.472733,167.237915 52.361904,165.806305 45.262722,166.345444 
	C45.262722,171.870636 45.262722,177.403214 45.262722,183.311874 
	C47.871548,182.966278 50.135437,182.666367 53.161930,182.065903 
z"/>
<path fill="#FCFCFC" opacity="1.000000" stroke="none" 
	d="
M191.995255,134.960144 
	C191.995255,128.679764 191.995255,122.894775 191.995255,116.776886 
	C195.107086,116.776886 197.906143,116.765518 200.705078,116.779488 
	C205.156662,116.801704 209.694199,117.240364 211.511566,122.031799 
	C213.285446,126.708572 212.312683,131.144394 208.069382,134.338120 
	C210.139450,137.453812 212.119736,140.434357 214.158661,143.503159 
	C209.492615,145.062607 206.791382,143.391525 204.607147,139.634827 
	C203.398514,137.556107 201.250977,136.023315 199.526657,134.244431 
	C199.045776,134.584351 198.564880,134.924271 198.083984,135.264191 
	C198.083984,138.022644 198.083984,140.781113 198.083984,143.769043 
	C195.980179,143.769043 194.238159,143.769043 191.995255,143.769043 
	C191.995255,141.003464 191.995255,138.229507 191.995255,134.960144 
M205.988708,124.712387 
	C204.379211,120.291489 201.022629,122.418427 198.279633,122.202934 
	C198.279633,125.057419 198.279633,127.481773 198.279633,130.013779 
	C201.775497,129.720444 206.059494,131.363464 205.988708,124.712387 
z"/>
<path fill="#FCFCFC" opacity="1.000000" stroke="none" 
	d="
M136.979340,180.898438 
	C136.979340,183.833878 136.979340,186.287247 136.979340,189.882889 
	C129.816879,183.848221 123.379433,178.424408 116.405457,172.548538 
	C116.405457,177.974289 116.405457,182.684631 116.405457,187.866531 
	C114.566780,187.982010 113.010643,188.079742 111.113800,188.198868 
	C111.113800,179.061264 111.113800,170.164642 111.113800,160.286896 
	C117.760948,165.966919 124.033195,171.326599 130.764191,177.078278 
	C130.764191,171.630157 130.764191,166.609421 130.764191,161.233322 
	C132.883820,161.135834 134.623672,161.055817 136.979340,160.947479 
	C136.979340,167.567184 136.979340,173.991776 136.979340,180.898438 
z"/>
<path fill="#F9F9F9" opacity="1.000000" stroke="none" 
	d="
M105.505951,133.350372 
	C105.130035,135.115509 105.130035,136.610153 105.130035,138.661270 
	C109.897736,138.661270 114.613495,138.661270 119.655792,138.661270 
	C119.755394,140.604782 119.827583,142.013474 119.915184,143.722824 
	C112.980698,143.722824 106.254997,143.722824 99.319901,143.722824 
	C99.319901,134.825958 99.319901,126.059540 99.319901,117.011360 
	C105.767036,117.011360 112.196091,117.011360 118.860077,117.011360 
	C118.940712,118.453194 119.022377,119.913490 119.134964,121.926842 
	C114.437599,121.926842 109.887352,121.926842 105.224304,121.926842 
	C105.224304,124.075089 105.224304,125.678085 105.224304,127.775436 
	C109.269020,127.775436 113.183685,127.775436 117.325928,127.775436 
	C117.325928,129.678116 117.325928,131.088348 117.325928,133.079895 
	C113.438782,133.079895 109.660316,133.079895 105.505951,133.350372 
z"/>
<path fill="#FFFFFF" opacity="1.000000" stroke="none" 
	d="
M168.044281,116.749893 
	C172.840164,116.749901 177.144241,116.749901 181.714569,116.749901 
	C181.714569,118.570854 181.714569,120.110168 181.714569,122.044861 
	C177.138504,122.044861 172.705597,122.044861 168.147659,122.044861 
	C168.147659,124.046776 168.147659,125.664024 168.147659,127.655640 
	C171.959412,127.655640 175.723969,127.655640 179.834946,127.655640 
	C179.834946,129.535950 179.834946,131.050339 179.834946,132.929779 
	C176.057785,132.929779 172.280365,132.929779 168.258331,132.929779 
	C168.258331,134.988266 168.258331,136.712555 168.258331,138.747269 
	C172.781342,138.747269 177.235107,138.747269 182.249313,138.747269 
	C182.329285,140.535202 182.396851,142.045654 182.474854,143.789490 
	C175.636551,143.789490 169.182571,143.789490 162.363525,143.789490 
	C162.363525,135.067169 162.363525,126.188492 162.363525,116.749893 
	C164.035339,116.749893 165.793900,116.749893 168.044281,116.749893 
z"/>
<path fill="#FBFBFB" opacity="1.000000" stroke="none" 
	d="
M153.788300,179.107727 
	C153.519424,181.875015 153.868011,183.328705 156.854919,183.082687 
	C160.456940,182.786026 164.102020,183.012451 167.910004,183.012451 
	C167.910004,184.817429 167.910004,186.229858 167.910004,187.890686 
	C161.397217,187.890686 154.979156,187.890686 147.989212,187.890686 
	C147.989212,183.502716 147.989227,179.068451 147.989227,174.634201 
	C147.989243,170.314743 147.989212,165.995285 147.989212,161.342285 
	C154.480942,161.342285 160.870193,161.342285 167.643539,161.342285 
	C167.735489,162.638168 167.834579,164.034821 167.965240,165.876587 
	C163.306534,165.876587 158.886353,165.876587 154.063446,165.876587 
	C153.939987,167.998215 153.839249,169.729385 153.719437,171.788147 
	C157.717789,171.788147 161.497253,171.788147 165.776047,171.788147 
	C165.858688,173.587860 165.928452,175.107025 166.019440,177.088409 
	C162.737579,177.088409 159.775574,176.956528 156.836655,177.159241 
	C155.794495,177.231125 154.808517,178.117645 153.788300,179.107727 
z"/>
<path fill="#F5F5F5" opacity="1.000000" stroke="none" 
	d="
M37.267876,131.693787 
	C38.417427,118.081543 48.094177,112.701958 60.232769,118.869156 
	C59.525600,120.416817 58.812031,121.978485 58.105198,123.525406 
	C51.651878,120.823799 47.671368,121.440201 44.952339,125.381592 
	C42.515625,128.913727 42.678078,132.512421 45.221172,135.840225 
	C48.149658,139.672348 52.205410,139.964630 58.488026,136.975266 
	C59.261818,138.503372 60.039692,140.039536 60.814697,141.570038 
	C50.296822,147.742142 40.084446,143.574188 37.267876,131.693787 
z"/>
<path fill="#FAFAFA" opacity="1.000000" stroke="none" 
	d="
M130.526337,124.535202 
	C129.299515,121.979767 128.288116,119.740517 127.151207,117.223366 
	C131.429276,115.860519 134.515350,116.390320 136.018631,121.386322 
	C136.998474,124.642700 138.637253,127.700798 140.321594,131.645798 
	C141.945129,127.795670 143.644684,124.851921 144.416046,121.682297 
	C145.585403,116.877266 148.376526,115.859604 153.170792,117.175812 
	C148.936844,126.369545 144.732483,135.499069 140.182449,145.379181 
	C136.870605,138.177917 133.806183,131.514648 130.526337,124.535202 
z"/>
<path fill="#F8F8F8" opacity="1.000000" stroke="none" 
	d="
M259.246429,126.411720 
	C260.195496,124.628502 261.223938,123.265785 261.690948,121.732109 
	C263.123199,117.028481 266.205383,115.793304 270.930908,117.110588 
	C267.781982,126.004128 258.678284,132.600143 261.060974,143.708710 
	C258.893005,143.708710 257.171600,143.708710 255.001755,143.708710 
	C256.763000,133.047821 248.140533,126.290329 244.818741,117.288338 
	C249.449646,115.659035 252.409851,116.929466 254.040527,121.495285 
	C254.756485,123.499886 255.901810,125.365067 257.016968,127.193001 
	C257.137451,127.390488 258.358459,126.916542 259.246429,126.411720 
z"/>
<path fill="#FAFAFA" opacity="1.000000" stroke="none" 
	d="
M70.069733,141.773102 
	C70.068207,133.319519 70.068207,125.346825 70.068207,117.053360 
	C71.954887,117.053360 73.696632,117.053360 75.810425,117.053360 
	C75.810425,124.030273 75.810425,131.099701 75.810425,138.706467 
	C80.537231,138.706467 84.920242,138.706467 89.561111,138.706467 
	C89.561111,140.641724 89.561111,142.042725 89.561111,143.562836 
	C89.194305,143.683670 88.740265,143.960342 88.284042,143.963974 
	C83.299324,144.003830 78.310616,144.104553 73.332100,143.929688 
	C72.226891,143.890854 71.157265,142.839264 70.069733,141.773102 
z"/>
<path fill="#FFFFFF" opacity="1.000000" stroke="none" 
	d="
M228.976044,118.162445 
	C228.996399,125.256294 228.996399,131.860153 228.996399,138.827332 
	C233.476669,138.827332 237.562225,138.827332 241.900177,138.827332 
	C241.900177,140.604523 241.900177,142.018921 241.900177,143.718185 
	C235.826370,143.718185 229.614426,143.718185 223.199890,143.718185 
	C223.199890,134.866928 223.199890,126.126770 223.199890,116.530090 
	C225.202026,116.927460 227.078857,117.299957 228.976044,118.162445 
z"/>
<path fill="#030303" opacity="1.000000" stroke="none" 
	d="
M77.570511,174.143311 
	C78.121758,169.325562 80.797218,166.835022 84.913605,166.106979 
	C88.910065,165.400162 91.994339,167.267105 93.978470,170.725388 
	C95.931137,174.128860 95.694992,177.986877 92.843552,180.231857 
	C90.554459,182.034103 86.842201,183.054611 83.916107,182.779205 
	C79.626961,182.375473 77.910210,178.645981 77.570511,174.143311 
z"/>
<path fill="#030303" opacity="1.000000" stroke="none" 
	d="
M52.780628,182.216187 
	C50.135437,182.666367 47.871548,182.966278 45.262722,183.311874 
	C45.262722,177.403214 45.262722,171.870636 45.262722,166.345444 
	C52.361904,165.806305 55.472733,167.237915 57.136677,171.723831 
	C58.849018,176.340256 57.369659,179.726501 52.780628,182.216187 
z"/>
<path fill="#040404" opacity="1.000000" stroke="none" 
	d="
M206.000000,125.136154 
	C206.059494,131.363464 201.775497,129.720444 198.279633,130.013779 
	C198.279633,127.481773 198.279633,125.057419 198.279633,122.202934 
	C201.022629,122.418427 204.379211,120.291489 206.000000,125.136154 
z"/>
</svg>