<?xml version="1.0" standalone="no"?>
<!DOCTYPE svg PUBLIC "-//W3C//DTD SVG 20010904//EN"
 "http://www.w3.org/TR/2001/REC-SVG-20010904/DTD/svg10.dtd">
<svg version="1.0" xmlns="http://www.w3.org/2000/svg"
 width="208.000000pt" height="198.000000pt" viewBox="0 0 208.000000 198.000000"
 preserveAspectRatio="xMidYMid meet">

<g transform="translate(0.000000,198.000000) scale(0.100000,-0.100000)"
fill="#000000" stroke="none">
<path d="M859 1775 c-156 -22 -204 -60 -197 -152 6 -70 27 -93 87 -93 25 0 67
7 94 15 129 39 281 59 442 59 l161 -1 -41 83 c-30 62 -46 84 -65 89 -53 14
-384 14 -481 0z"/>
<path d="M1130 1560 c-88 -12 -222 -44 -357 -86 l-113 -35 0 -48 c0 -26 3 -76
7 -110 7 -73 -2 -72 143 -16 251 97 441 145 601 149 59 2 112 7 118 10 19 12
12 56 -13 81 -13 13 -48 31 -77 39 -65 20 -221 28 -309 16z"/>
<path d="M410 472 c-64 -6 -102 -68 -64 -106 14 -14 70 -34 146 -50 87 -19 69
-97 -26 -111 -36 -6 -55 -3 -88 14 -49 24 -73 13 -31 -15 42 -28 139 -31 180
-5 39 25 52 65 32 100 -11 20 -33 31 -102 51 -102 29 -125 51 -87 82 28 23
117 25 146 3 32 -25 51 -18 25 9 -23 25 -66 34 -131 28z"/>
<path d="M674 396 c-43 -19 -64 -53 -64 -104 0 -37 6 -50 34 -78 28 -28 42
-34 76 -34 55 0 96 25 115 72 20 51 3 103 -44 135 -38 26 -72 28 -117 9z m121
-41 c33 -32 33 -84 1 -122 -35 -40 -107 -40 -142 0 -32 37 -32 86 1 121 34 36
105 37 140 1z"/>
<path d="M1207 399 c-9 -6 -27 -9 -40 -7 -22 3 -22 1 -22 -99 0 -126 19 -141
23 -19 3 83 3 84 33 96 16 7 45 10 64 7 38 -6 47 6 16 23 -25 13 -51 12 -74
-1z"/>
<path d="M1393 393 c-21 -10 -38 -30 -48 -55 -32 -80 20 -158 105 -158 36 0
100 32 100 50 0 15 -26 12 -39 -4 -28 -34 -108 -27 -137 12 -23 29 -17 90 11
117 29 30 98 35 127 8 26 -23 36 -7 11 18 -27 27 -89 33 -130 12z"/>
<path d="M1638 394 c-35 -18 -58 -62 -58 -110 0 -52 53 -104 106 -104 49 0
114 18 114 31 0 6 -14 7 -37 2 -91 -19 -146 0 -155 52 -3 19 3 20 95 23 107 3
111 6 82 62 -28 54 -94 74 -147 44z m109 -36 c42 -39 31 -48 -57 -48 -87 0
-100 10 -60 50 28 28 87 27 117 -2z"/>
<path d="M899 358 c-4 -115 -1 -139 16 -158 22 -24 74 -26 116 -5 26 14 30 14
35 0 14 -37 24 4 24 101 0 80 -3 105 -12 102 -9 -3 -14 -32 -16 -86 l-3 -81
-45 -17 c-35 -13 -50 -15 -69 -6 -24 11 -25 16 -25 102 0 53 -4 90 -10 90 -5
0 -11 -19 -11 -42z"/>
</g>
</svg>
