<svg version="1.1" id="Layer_1" xmlns="http://www.w3.org/2000/svg" xmlns:xlink="http://www.w3.org/1999/xlink" x="0px" y="0px"
	 width="100%" viewBox="0 0 300 160" enable-background="new 0 0 300 160" xml:space="preserve">
<path fill="#FDFDFD" opacity="1.000000" stroke="none" 
	d="
M300.691528,102.857681 
	C301.000000,121.316147 300.955048,139.632538 301.055237,157.948135 
	C301.068176,160.314743 300.688690,161.074448 298.057129,161.072144 
	C199.982559,160.986588 101.907883,160.981827 3.833364,161.088745 
	C0.926094,161.091919 0.968185,159.944168 0.970665,157.838867 
	C1.011847,122.871719 1.000000,87.904510 1.000000,52.468658 
	C1.973170,50.789631 4.429831,51.715836 4.684496,49.956333 
	C4.982597,47.896729 2.485728,48.440372 1.252978,47.228889 
	C1.000000,32.847397 1.091540,18.693708 0.923370,4.543104 
	C0.889416,1.686024 1.340093,0.887686 4.451376,0.904597 
	C33.921219,1.064784 63.392284,1.000000 92.862999,1.000000 
	C160.795486,1.000000 228.727997,1.025383 296.660339,0.923891 
	C300.003082,0.918897 301.151825,1.282083 301.122986,5.152948 
	C300.899933,35.121506 301.000000,65.092468 301.000000,95.531342 
	C300.848541,96.137344 300.697113,96.274689 300.243530,96.355530 
	C299.423523,95.965538 299.001007,95.519073 298.299103,94.929855 
	C297.893433,94.621109 297.729431,94.499794 297.317627,94.201279 
	C296.224854,93.338394 295.252411,93.287056 293.953918,93.549759 
	C292.925598,93.936905 292.284363,94.374001 291.609619,95.257729 
	C290.979736,96.185333 290.490723,96.846474 290.304443,97.987030 
	C290.248596,98.716812 290.250214,99.137138 290.315308,99.878937 
	C291.218811,103.471802 293.066010,105.201958 296.952209,104.094795 
	C298.285400,103.505440 299.223785,102.832634 300.691528,102.857681 
z"/>
<path fill="#D4D4D5" opacity="1.000000" stroke="none" 
	d="
M300.214172,95.868362 
	C300.492584,96.007637 300.743134,95.794609 300.871582,95.897308 
	C301.000000,97.066673 301.000000,98.133339 301.000000,99.600006 
	C299.828217,101.274765 299.364502,103.043686 297.701599,104.366287 
	C295.724335,105.015480 294.252625,105.060326 293.362122,102.818573 
	C294.210999,99.917213 296.069122,97.760757 296.348785,94.599152 
	C296.723663,94.102554 296.919037,93.940735 297.482635,93.874634 
	C298.064453,93.966339 298.277985,93.962326 298.805054,94.023926 
	C299.483063,94.590179 299.438354,95.294724 300.214172,95.868362 
z"/>
<path fill="#F48C24" opacity="1.000000" stroke="none" 
	d="
M1.000000,47.416664 
	C1.490499,46.940941 1.987589,46.798973 2.470341,46.837353 
	C4.436049,46.993637 6.931798,47.077564 6.601068,49.754967 
	C6.244378,52.642521 3.928853,52.622967 1.319798,51.868523 
	C1.000000,50.611111 1.000000,49.222221 1.000000,47.416664 
z"/>
<path fill="#7E7E7F" opacity="1.000000" stroke="none" 
	d="
M297.729675,104.203369 
	C298.087372,102.290367 298.730652,100.887276 300.651428,100.009308 
	C301.000000,100.750000 301.000000,101.500000 301.000000,102.625000 
	C299.749756,102.909088 299.497131,104.272339 298.277649,104.732025 
	C297.804260,104.664925 297.630066,104.528183 297.729675,104.203369 
z"/>
<path fill="#2C93D3" opacity="1.000000" stroke="none" 
	d="
M194.770599,60.194294 
	C194.689392,58.891335 194.882828,57.794575 195.207184,56.384369 
	C195.852570,55.680454 196.066757,55.180443 195.783722,54.265404 
	C195.376465,52.383160 197.158813,49.691986 193.438766,49.877789 
	C192.112320,49.944038 191.855774,48.892132 191.927750,47.811417 
	C192.005219,46.648178 192.068680,45.057495 193.525772,45.131989 
	C196.796143,45.299171 201.236984,42.768383 202.213699,48.653122 
	C211.215210,42.404549 214.749695,42.632607 219.384598,49.579693 
	C227.088593,42.861736 231.755371,42.391045 236.139435,48.239243 
	C234.869324,50.630219 235.832870,52.909241 235.432922,54.750763 
	C235.491577,55.710464 236.476044,54.681961 235.912506,55.038155 
	C235.140747,53.154343 235.519424,51.238743 235.982758,49.029346 
	C238.831818,54.440372 235.687927,59.809669 234.978973,65.620377 
	C233.459564,66.611229 234.056259,67.631599 234.478455,68.839897 
	C235.482513,70.683456 239.237839,69.310883 238.269836,72.735176 
	C237.820236,74.325615 237.267059,75.510559 235.301712,75.371078 
	C232.446899,75.168457 229.908112,74.439926 229.265610,71.228523 
	C228.489655,67.350113 230.236694,63.694813 230.579208,59.904568 
	C230.728165,58.256401 231.116211,56.628590 231.241028,54.979828 
	C231.380524,53.136913 231.484741,51.117085 229.347687,50.280300 
	C227.558594,49.579758 225.758560,49.914074 224.137253,51.058517 
	C220.657547,53.514729 218.930466,57.030018 218.099854,61.060471 
	C217.328903,64.801453 216.455841,68.538109 215.999817,72.321510 
	C215.685059,74.932701 214.214005,75.171539 212.210922,75.031120 
	C209.478333,74.839569 210.184036,72.936684 210.443634,71.351379 
	C211.330933,65.932999 212.325119,60.531647 213.164764,55.106194 
	C213.446503,53.285652 213.514221,51.251896 211.424622,50.349483 
	C209.657669,49.586411 207.827759,49.903389 206.197937,51.007935 
	C203.164246,53.063866 201.406494,56.030384 199.979034,59.643200 
	C198.231461,60.584999 196.643677,60.541084 194.770599,60.194294 
z"/>
<path fill="#2992D3" opacity="1.000000" stroke="none" 
	d="
M68.575790,66.345734 
	C67.807823,63.122578 69.301399,62.187256 71.984840,62.206276 
	C74.527763,62.224312 73.889175,63.906261 73.737007,65.340569 
	C73.410294,68.419983 75.365829,69.532799 77.875664,69.880608 
	C81.835266,70.429306 85.708878,70.199760 87.858917,66.119583 
	C89.189690,63.594162 89.288902,60.857048 86.760674,58.896206 
	C85.205353,57.689930 83.377487,56.788277 81.578323,55.951187 
	C73.311890,52.105087 70.683258,48.026936 72.518318,41.708858 
	C74.389442,35.266628 81.639687,31.385424 89.394218,32.674854 
	C96.399452,33.839684 98.701447,37.005699 97.073929,42.634922 
	C96.472229,44.716076 95.265327,44.635719 93.749893,44.672878 
	C92.017746,44.715351 91.423195,43.906380 91.532684,42.213089 
	C91.767204,38.586018 89.055878,38.302143 86.519821,38.173988 
	C82.914032,37.991779 79.905556,39.242893 78.443779,42.790829 
	C77.290070,45.591038 78.604439,47.714916 80.995041,49.077240 
	C83.153397,50.307213 85.511475,51.182133 87.756142,52.266087 
	C95.239685,55.879868 97.170509,64.173134 92.049782,70.629631 
	C86.602547,77.497810 74.594994,77.648666 68.732285,70.565170 
	C69.024605,69.011955 69.141083,67.815063 68.575790,66.345734 
z"/>
<path fill="#2992D3" opacity="1.000000" stroke="none" 
	d="
M182.260376,74.736496 
	C180.640152,75.230499 178.875046,75.334984 178.254410,74.257835 
	C175.681870,69.792969 173.554764,72.348297 170.866104,74.160484 
	C167.671402,76.313751 163.967056,76.747246 160.454483,74.714638 
	C156.850113,72.628914 156.657074,69.067673 157.139755,65.478333 
	C157.582108,62.188847 158.515686,58.957790 158.837433,55.662388 
	C159.050934,53.475445 161.313950,50.152691 156.491653,49.727638 
	C155.532227,49.643070 155.621109,48.559814 155.764832,47.684963 
	C156.588013,42.674690 160.468307,45.603680 162.925797,44.999218 
	C165.227127,44.433170 166.336670,45.610893 165.847916,48.073273 
	C165.298950,50.839008 164.819565,53.618549 164.040466,56.660866 
	C163.082260,57.584267 162.994888,58.401402 163.214172,59.590744 
	C164.048157,61.420830 162.993622,62.805405 162.967529,64.266251 
	C162.932510,66.225082 162.351807,68.495766 164.555923,69.609833 
	C166.410797,70.547394 168.398987,70.147415 170.280182,69.171074 
	C174.911896,66.767204 179.664719,56.480659 178.518570,51.409763 
	C178.212952,50.057602 177.269653,50.084160 176.317688,49.936401 
	C173.775925,49.541882 174.524109,47.566841 175.173309,46.544056 
	C177.206375,43.341034 180.552856,45.208927 183.286652,45.055603 
	C186.069901,44.899502 185.055344,47.325203 184.830093,48.748425 
	C184.130249,53.170609 183.144760,57.547684 182.449631,61.970482 
	C182.045547,64.541458 181.057175,67.158157 182.667664,70.068604 
	C184.317184,71.897820 183.645218,73.201141 182.260376,74.736496 
z"/>
<path fill="#545356" opacity="1.000000" stroke="none" 
	d="
M104.792252,127.278992 
	C108.887772,124.870583 109.943512,121.331886 107.888000,116.829880 
	C107.753960,116.536301 107.665771,116.192154 107.453934,115.968407 
	C105.716164,114.132980 93.016632,115.236519 92.302345,117.599747 
	C91.442207,120.445488 85.769012,123.163704 91.609543,126.813118 
	C92.577362,127.417854 91.224678,129.215332 89.573257,129.241211 
	C86.743263,129.285568 83.911995,129.268936 81.081482,129.248337 
	C80.226349,129.242126 79.351524,129.072250 79.280472,127.999390 
	C79.208832,126.917603 79.636162,125.794960 80.808495,125.840500 
	C83.922447,125.961441 84.479752,123.553535 85.525436,121.520599 
	C90.698586,111.463303 95.893547,101.417191 101.093491,91.373703 
	C102.074471,89.478973 102.780144,87.279060 105.697975,87.692574 
	C108.796524,88.131699 107.826454,90.678787 108.128891,92.404671 
	C109.792206,101.896538 111.320580,111.412178 112.870689,120.923660 
	C113.206375,122.983444 112.786758,125.239624 115.855797,125.901039 
	C117.747406,126.308708 117.164131,128.725525 116.112015,128.793213 
	C112.301346,129.038361 108.184006,130.902008 104.792252,127.278992 
z"/>
<path fill="#2B93D3" opacity="1.000000" stroke="none" 
	d="
M123.233849,54.120804 
	C120.239647,54.314377 122.095261,50.039791 118.599083,49.846848 
	C113.689095,49.575882 110.204620,51.292343 107.614136,55.202545 
	C104.879539,59.330276 104.802002,64.873291 107.315994,67.848404 
	C109.832771,70.826813 114.966972,71.133209 119.807686,68.721359 
	C120.871635,68.191254 121.881783,65.868820 123.360451,68.214478 
	C124.667664,70.288162 124.133049,71.847038 122.095177,73.248337 
	C117.534805,76.384148 110.019569,76.800293 105.472137,73.986465 
	C100.875389,71.142120 98.900894,65.933907 99.998985,59.549751 
	C101.841934,48.835098 111.802582,42.015854 121.482071,44.832241 
	C123.427200,45.398205 125.294899,46.053806 126.272308,48.425808 
	C124.577682,50.012543 126.668945,53.441509 123.233849,54.120804 
z"/>
<path fill="#545356" opacity="1.000000" stroke="none" 
	d="
M265.049255,117.683067 
	C267.030060,125.785789 271.917633,127.971542 279.324158,124.550583 
	C280.495911,124.009369 281.787476,122.061157 283.075043,124.186111 
	C284.313080,126.229332 282.664795,127.155243 281.129150,127.962006 
	C276.285309,130.506821 271.347534,131.217499 266.437317,128.284500 
	C261.703186,125.456673 260.674988,120.894058 260.938171,115.777534 
	C261.378326,107.220215 267.503448,99.910538 275.180298,98.873283 
	C283.074463,97.806656 288.765350,104.379097 286.746979,112.082062 
	C286.103760,114.536804 284.404572,114.504356 282.525238,114.510002 
	C277.702148,114.524498 272.878815,114.605217 268.056244,114.568733 
	C266.132751,114.554176 264.724762,114.879478 265.049255,117.683067 
z"/>
<path fill="#515153" opacity="1.000000" stroke="none" 
	d="
M173.711670,111.978455 
	C174.420593,111.889503 174.853073,111.837898 175.584213,111.649887 
	C176.674774,111.169991 177.498795,110.987465 178.684326,111.017563 
	C181.017776,110.738602 183.558029,112.206421 184.920410,109.846397 
	C185.980423,108.010155 185.405029,105.724838 184.057510,104.287155 
	C182.421982,102.542213 180.097900,102.119087 177.674240,102.983925 
	C176.288193,103.478500 174.715683,103.356743 173.468323,104.370277 
	C172.774033,104.934410 171.904282,105.084984 171.376785,104.121727 
	C170.885132,103.223991 170.519363,101.965820 171.605225,101.470245 
	C175.483734,99.700157 179.574280,97.451050 183.831192,99.316048 
	C187.334564,100.850906 190.156219,103.580360 189.201569,108.579880 
	C189.033112,109.425583 188.982681,109.866394 188.863434,110.633606 
	C188.316330,113.728851 187.716690,116.482803 187.373062,119.268333 
	C187.052811,121.864410 185.384018,125.011330 189.697876,126.152870 
	C190.696564,126.417137 190.590073,127.394638 190.272125,128.223862 
	C189.857071,129.306320 188.991684,129.695908 187.907867,129.628021 
	C185.124924,129.453629 183.275970,128.070267 182.735275,125.083351 
	C180.398666,126.633812 178.863129,128.714798 176.375977,129.463638 
	C172.404358,130.659393 168.636902,130.539062 166.141281,126.855560 
	C163.585175,123.082733 164.409836,119.207642 167.280350,115.897110 
	C168.325027,114.692284 169.947342,113.988304 171.609802,112.875519 
	C172.413956,112.453636 172.882843,112.141258 173.711670,111.978455 
z"/>
<path fill="#57575A" opacity="1.000000" stroke="none" 
	d="
M246.491699,129.957764 
	C239.931732,130.568954 234.774490,129.119431 232.116104,122.915131 
	C229.461578,116.719849 231.361038,108.790703 236.609161,103.656921 
	C241.316116,99.052521 248.337067,97.455399 253.608704,99.720146 
	C257.121521,101.229294 258.237366,103.731804 257.123383,107.366760 
	C256.766907,108.529938 256.087494,108.977623 254.959625,108.931290 
	C254.052124,108.894005 253.584000,108.506195 253.227966,107.558517 
	C251.485840,102.921417 249.014496,101.757683 244.500778,103.268242 
	C239.161316,105.055130 234.691559,111.719238 235.082840,117.309753 
	C235.605072,124.770889 242.095627,128.049927 249.374435,124.855316 
	C250.769852,124.242889 252.333145,120.765434 254.058792,123.670761 
	C255.874344,126.727493 252.429779,127.384720 250.621017,128.495575 
	C249.512726,129.176239 248.156494,129.453201 246.491699,129.957764 
z"/>
<path fill="#47474A" opacity="1.000000" stroke="none" 
	d="
M221.611298,100.795876 
	C222.429810,101.640625 222.995956,102.214973 223.621918,103.091362 
	C224.024918,105.445831 224.078201,107.505241 223.754364,110.083099 
	C223.342529,112.893753 223.006943,115.193199 222.428116,117.794502 
	C222.018448,118.223351 221.852036,118.350349 221.869797,118.731682 
	C222.707336,121.712326 220.102753,125.446632 224.583664,127.010178 
	C225.345261,127.275932 225.245728,127.989357 224.756470,128.594727 
	C224.096695,129.411087 223.174362,130.033646 222.223312,129.736908 
	C219.738770,128.961685 217.857803,127.628838 217.785278,124.572701 
	C217.698166,120.901909 218.657425,117.437462 219.607361,113.533440 
	C219.882187,112.615341 219.991653,112.089951 220.132019,111.297424 
	C219.985611,108.028023 221.365311,104.091583 217.108429,103.050255 
	C213.137680,102.078911 209.907700,103.871758 207.331055,107.222595 
	C203.010101,112.841812 202.913239,119.629608 201.382477,126.470795 
	C201.080719,127.475700 200.854782,128.050400 200.214005,128.755981 
	C198.791870,129.081970 197.309296,129.907074 197.109039,127.415947 
	C197.633087,126.036674 198.034515,125.028893 198.405365,123.739456 
	C199.196945,118.055176 200.111023,112.685188 200.963989,107.305496 
	C201.291626,105.239067 202.135010,102.833389 198.525635,102.797539 
	C197.582077,102.788170 197.062988,102.112167 197.309799,101.104218 
	C197.526947,100.217484 198.147110,99.655655 199.035004,99.574265 
	C202.381851,99.267464 205.907822,98.699837 206.235825,104.157059 
	C208.404877,101.003532 211.566177,100.455215 214.656021,99.129257 
	C217.301849,98.836662 219.446991,99.154274 221.611298,100.795876 
z"/>
<path fill="#2B93D3" opacity="1.000000" stroke="none" 
	d="
M132.328934,71.443710 
	C133.114075,65.532890 134.115753,60.008820 134.955521,54.460239 
	C135.247650,52.530052 136.265778,50.514191 132.714066,49.667088 
	C129.792862,48.970367 131.642181,45.690418 132.826889,45.305687 
	C135.212158,44.531075 138.979324,43.716969 140.326065,45.784725 
	C142.746201,49.500572 144.089035,46.987701 145.974884,45.834686 
	C147.561539,44.864597 149.430908,43.995075 151.102325,45.051064 
	C152.625168,46.013184 151.603134,47.771507 151.343994,49.163963 
	C151.183502,50.026356 150.516815,50.554245 149.611404,50.718647 
	C142.439423,52.020889 140.541046,57.709488 139.030151,63.616043 
	C138.294067,66.493584 137.886139,69.455063 137.097046,72.676712 
	C134.961990,74.267090 133.345184,74.474602 132.328934,71.443710 
z"/>
<path fill="#57575A" opacity="1.000000" stroke="none" 
	d="
M153.768173,99.386139 
	C161.059860,99.350845 161.058395,99.350563 159.775467,105.971581 
	C158.923370,110.369026 157.874939,114.741592 157.305817,119.175537 
	C156.988266,121.649445 155.186783,124.967819 159.595840,126.099945 
	C160.628937,126.365211 160.342987,127.415672 160.151169,128.217926 
	C159.862167,129.426743 158.931137,129.625046 157.866867,129.667099 
	C154.209976,129.811615 151.974457,127.163589 152.589081,122.961700 
	C153.381851,117.542015 154.372345,112.148224 155.411530,106.769135 
	C155.809616,104.708473 156.585373,103.280907 153.243530,102.758102 
	C149.957214,102.243965 151.624756,100.509209 153.768173,99.386139 
z"/>
<path fill="#4C4C4E" opacity="1.000000" stroke="none" 
	d="
M143.568039,126.736725 
	C144.666946,129.219193 142.932129,128.806580 141.690079,129.040833 
	C138.952560,129.557144 137.704926,128.145187 137.131470,125.356873 
	C137.088547,124.541542 137.075546,124.109367 137.136230,123.354248 
	C137.262024,121.976830 137.345856,120.921417 137.600525,119.506546 
	C137.913483,118.377266 138.179260,117.648155 138.368744,116.675621 
	C139.544876,108.406013 140.851379,100.397606 142.180939,91.923706 
	C141.776520,91.187782 141.575897,90.792770 141.673645,89.949615 
	C142.056732,89.199799 142.395554,88.856972 143.121094,88.411125 
	C144.431580,88.038406 145.392426,87.993553 146.560577,88.788918 
	C144.999512,99.427834 143.153778,109.810867 141.363617,120.203484 
	C141.021317,122.190735 139.974121,124.407578 142.791245,126.147232 
	C143.064774,126.454002 143.500824,126.526192 143.568039,126.736725 
z"/>
<path fill="#F48C24" opacity="1.000000" stroke="none" 
	d="
M7.475768,94.478760 
	C8.623772,92.994652 9.716831,92.048462 11.230694,91.627861 
	C14.777061,90.642548 18.389036,92.750534 19.123941,96.446045 
	C19.845999,100.076950 18.288618,102.642090 14.810575,103.717949 
	C11.167088,104.844978 7.547287,102.653038 6.778305,99.107376 
	C6.457592,97.628609 6.475431,96.148430 7.475768,94.478760 
z"/>
<path fill="#414144" opacity="1.000000" stroke="none" 
	d="
M126.206665,103.339218 
	C126.298355,102.619011 126.322227,102.191368 126.462311,101.462639 
	C127.158966,99.895813 126.817871,98.420509 127.475693,96.831734 
	C127.577316,94.994888 127.688492,93.500854 127.845383,91.632584 
	C127.909676,88.692314 129.578629,89.156586 131.561188,89.734772 
	C131.904358,91.043167 131.853882,92.090683 131.695770,93.517792 
	C131.355118,94.397400 131.088531,94.884682 130.979431,95.715988 
	C130.859253,97.037926 130.761902,98.084297 130.523529,99.499069 
	C130.007721,100.829666 129.988968,101.885658 129.543304,103.156647 
	C129.468292,104.778625 128.894531,106.009575 128.909912,107.655891 
	C128.806168,108.700180 128.736374,109.416977 128.551712,110.475098 
	C127.848587,112.077248 128.173111,113.541267 127.552734,115.136154 
	C127.528358,115.811447 127.502571,116.145226 127.403534,116.719887 
	C126.913651,118.177475 127.102341,119.505035 126.585175,121.092064 
	C126.490494,122.008545 126.453621,122.546883 126.387177,123.353653 
	C126.679085,125.470818 129.231857,125.563538 129.323669,127.870041 
	C125.506607,131.008682 123.480064,129.758148 122.088440,123.423737 
	C122.473289,122.595055 122.836357,122.149033 123.025223,121.293900 
	C123.120247,120.285378 123.177727,119.561356 123.339920,118.489151 
	C123.863815,117.368210 124.003479,116.524460 124.119415,115.344078 
	C124.215385,114.299957 124.265724,113.574860 124.440018,112.507362 
	C124.901878,111.365891 124.998802,110.515427 125.154434,109.349533 
	C125.240837,108.608253 125.270035,108.182709 125.412827,107.456383 
	C126.082382,106.042137 125.952919,104.809563 126.206665,103.339218 
z"/>
<path fill="#DB5F28" opacity="1.000000" stroke="none" 
	d="
M21.623280,79.049911 
	C25.415176,81.579887 25.284472,84.730957 22.845097,87.572212 
	C20.664055,90.112579 17.537086,90.545067 14.811100,88.307076 
	C11.529799,85.613190 11.498996,82.431808 14.681196,79.147141 
	C17.101240,78.899063 19.188099,78.640923 21.623280,79.049911 
z"/>
<path fill="#D59339" opacity="1.000000" stroke="none" 
	d="
M54.093208,72.052406 
	C57.299007,70.304893 59.556984,71.183533 61.022167,73.895805 
	C62.328445,76.313911 61.429596,78.376396 59.317013,79.919144 
	C57.216995,81.452690 55.125069,80.946220 53.505222,79.269852 
	C51.292107,76.979500 51.626873,74.531593 54.093208,72.052406 
z"/>
<path fill="#F48C24" opacity="1.000000" stroke="none" 
	d="
M48.401787,47.179283 
	C44.430061,47.377827 42.197456,45.753624 42.588779,41.992779 
	C42.890629,39.091839 44.993523,37.846870 47.936302,38.107635 
	C49.580853,38.253353 51.328510,39.073128 51.248409,40.517193 
	C51.119534,42.840687 52.508350,46.088638 48.401787,47.179283 
z"/>
<path fill="#E0A225" opacity="1.000000" stroke="none" 
	d="
M25.068748,77.371719 
	C22.929987,73.907394 23.906637,71.367943 26.891544,69.684288 
	C29.824150,68.030136 32.257896,69.024757 34.103539,72.095993 
	C34.096130,78.930420 31.377890,80.551239 25.068748,77.371719 
z"/>
<path fill="#E2A72F" opacity="1.000000" stroke="none" 
	d="
M36.722359,30.217552 
	C36.040688,29.610838 35.281666,30.606390 34.407738,30.896135 
	C31.378340,31.900520 28.992973,31.176855 28.301613,27.875402 
	C27.734243,25.166048 29.276569,23.203688 31.972797,23.003036 
	C35.236530,22.760151 36.783863,24.741602 36.641781,27.984184 
	C36.613041,28.640066 36.454678,29.290268 36.722359,30.217552 
z"/>
<path fill="#F5902C" opacity="1.000000" stroke="none" 
	d="
M62.709221,84.646896 
	C64.182587,81.537186 66.387642,81.062187 68.960701,82.303230 
	C70.887703,83.232666 71.092720,85.115906 70.680634,86.979156 
	C70.225304,89.037956 68.702370,89.993378 66.692841,89.861656 
	C63.727200,89.667267 62.316326,87.979706 62.709221,84.646896 
z"/>
<path fill="#D9591E" opacity="1.000000" stroke="none" 
	d="
M37.065624,30.925625 
	C37.088638,30.492014 37.034870,30.537584 37.033169,30.572330 
	C37.835995,30.047665 38.601654,29.088413 39.452511,29.005709 
	C41.770916,28.780359 44.626015,27.673798 45.694176,31.100933 
	C46.740639,34.458450 44.496628,36.262424 41.897224,36.910496 
	C39.054787,37.619156 37.205296,35.935036 37.009769,32.852394 
	C36.978371,32.357361 37.029587,31.857088 37.065624,30.925625 
z"/>
<path fill="#B35228" opacity="1.000000" stroke="none" 
	d="
M39.252911,74.302414 
	C37.781410,72.929840 38.059135,71.726883 38.876030,70.250961 
	C40.786247,67.805634 43.139107,67.880081 45.984940,68.201965 
	C46.423687,68.261024 46.653652,68.377975 46.731739,68.480652 
	C46.509651,68.716484 46.405445,68.859100 46.495262,69.012329 
	C46.587425,69.169556 46.680664,69.248718 46.896721,69.002853 
	C48.669186,69.987251 49.001953,71.597610 48.161530,73.732697 
	C45.334400,76.676445 42.550163,76.936317 39.252911,74.302414 
z"/>
<path fill="#2992D3" opacity="1.000000" stroke="none" 
	d="
M194.356064,60.315670 
	C196.043945,59.735050 197.502426,58.320145 199.453827,59.755527 
	C199.667023,60.701180 199.597061,61.519268 199.298523,62.682610 
	C198.982727,63.734318 198.717941,64.376823 198.314789,65.333374 
	C198.331253,66.243362 198.397141,66.807243 198.344650,67.639374 
	C198.126251,68.358467 198.040375,68.811989 197.922852,69.611526 
	C197.290222,75.624924 196.515472,76.131958 192.048187,73.401833 
	C196.084045,70.272423 192.976959,66.013832 194.280762,62.386631 
	C194.233658,61.586685 194.224915,61.114967 194.356064,60.315670 
z"/>
<path fill="#F4871B" opacity="1.000000" stroke="none" 
	d="
M66.900230,98.763519 
	C66.845146,95.951996 67.836372,94.702362 70.430763,94.915977 
	C72.136124,95.056404 73.870918,95.237625 74.193924,97.190231 
	C74.457993,98.786652 74.152153,100.760780 72.548691,101.476776 
	C70.134186,102.554939 68.111778,101.624092 66.900230,98.763519 
z"/>
<path fill="#D59339" opacity="1.000000" stroke="none" 
	d="
M15.232187,31.853188 
	C14.493521,34.591080 12.779324,35.280067 10.562257,34.718925 
	C8.922777,34.303974 8.259239,32.931870 8.133751,31.322777 
	C7.949981,28.966366 10.012959,28.566229 11.408986,28.389675 
	C13.384221,28.139870 15.295504,28.873020 15.232187,31.853188 
z"/>
<path fill="#B5582E" opacity="1.000000" stroke="none" 
	d="
M18.610703,24.889610 
	C20.370848,22.129313 22.439909,22.406988 24.451139,24.104212 
	C25.897194,25.324499 25.886633,27.084082 24.979109,28.560997 
	C23.531490,30.916855 21.496700,31.296776 19.060127,29.330727 
	C19.959711,28.065800 18.897152,27.245277 18.690624,26.073921 
	C18.616396,25.584518 18.608133,25.385990 18.610703,24.889610 
z"/>
<path fill="#F6983D" opacity="1.000000" stroke="none" 
	d="
M8.666157,40.634823 
	C7.422854,42.798546 5.861589,43.489552 3.983085,42.305420 
	C2.671111,41.478405 1.912969,40.159374 2.579281,38.495399 
	C3.110313,37.169250 4.130259,36.194881 5.551745,36.285355 
	C7.926129,36.436481 9.041010,37.873070 8.666157,40.634823 
z"/>
<path fill="#DB5F28" opacity="1.000000" stroke="none" 
	d="
M69.136314,113.890526 
	C66.531349,113.443611 65.731331,112.007111 66.219223,109.943138 
	C66.608643,108.295708 67.934761,107.564514 69.549858,107.677940 
	C70.962151,107.777122 72.013168,108.592949 72.271751,110.066170 
	C72.650024,112.221291 71.652748,113.474815 69.136314,113.890526 
z"/>
<path fill="#E2A72F" opacity="1.000000" stroke="none" 
	d="
M62.075100,119.257187 
	C65.192848,119.539360 66.326828,121.074753 65.080750,123.598541 
	C64.359901,125.058556 62.581242,125.527344 61.250797,124.490036 
	C58.996540,122.732452 59.451767,120.876442 62.075100,119.257187 
z"/>
<path fill="#E1A42C" opacity="1.000000" stroke="none" 
	d="
M24.788204,77.451149 
	C28.665775,77.951782 32.948277,79.488976 34.090416,72.852676 
	C35.720814,75.409836 34.967110,77.910072 32.157494,79.451904 
	C29.444309,80.940819 26.802620,80.565605 24.788204,77.451149 
z"/>
<path fill="#2C93D3" opacity="1.000000" stroke="none" 
	d="
M194.099823,62.421585 
	C194.797852,64.942039 195.474274,67.809242 195.869202,70.714699 
	C196.167007,72.905540 194.462433,72.977219 192.496597,72.997528 
	C192.719391,69.596046 193.338333,66.190407 194.099823,62.421585 
z"/>
<path fill="#626264" opacity="1.000000" stroke="none" 
	d="
M160.720551,92.968643 
	C156.591599,93.105232 157.902573,90.545525 158.453476,88.940178 
	C159.049667,87.202805 161.171631,86.971687 162.149536,88.041542 
	C163.657120,89.690880 163.169205,91.651604 160.720551,92.968643 
z"/>
<path fill="#C24875" opacity="1.000000" stroke="none" 
	d="
M14.122272,68.001793 
	C11.526361,69.302238 10.429168,68.146103 10.321642,65.974747 
	C10.260702,64.744118 11.262198,63.687778 12.546524,63.920700 
	C14.686795,64.308846 15.671318,65.569756 14.122272,68.001793 
z"/>
<path fill="#6C6C6E" opacity="1.000000" stroke="none" 
	d="
M146.832245,88.668854 
	C145.806686,89.013458 144.787445,88.985443 143.386139,88.976883 
	C142.538651,89.433823 141.952118,89.445198 141.362473,89.499580 
	C140.699768,89.560715 141.443161,88.997978 140.986771,89.416214 
	C140.736435,89.645607 141.414978,89.442017 141.752640,89.870743 
	C141.987000,90.392296 142.058594,90.695724 142.176392,91.226486 
	C140.621719,91.161957 138.003098,92.324326 138.022705,89.551636 
	C138.040909,86.979424 140.546799,87.500259 142.229736,87.557091 
	C143.770660,87.609131 145.505936,86.844467 146.832245,88.668854 
z"/>
<path fill="#B35228" opacity="1.000000" stroke="none" 
	d="
M50.102680,128.840393 
	C50.455784,125.750633 52.068703,125.191544 54.166641,126.441086 
	C55.363224,127.153770 55.684029,128.784225 54.727913,129.882462 
	C53.061417,131.796692 51.383759,131.531815 50.102680,128.840393 
z"/>
<path fill="#DD6E39" opacity="1.000000" stroke="none" 
	d="
M8.699696,59.719898 
	C6.774078,61.594120 5.138251,61.575455 4.207016,59.350330 
	C3.673005,58.074341 4.164548,56.494801 5.715372,56.211163 
	C8.009378,55.791595 9.012628,57.136280 8.699696,59.719898 
z"/>
<path fill="#717173" opacity="1.000000" stroke="none" 
	d="
M297.602295,103.977036 
	C298.003479,104.015282 297.979614,104.408134 297.979034,104.604904 
	C293.167633,107.316315 290.888580,104.487366 289.022461,100.251305 
	C290.330383,98.855125 291.275879,99.921249 292.537659,100.829323 
	C292.906158,101.203865 293.036713,101.369453 293.308777,101.817909 
	C293.726471,104.701218 295.768768,103.697639 297.602295,103.977036 
z"/>
<path fill="#B5582E" opacity="1.000000" stroke="none" 
	d="
M38.981026,74.362015 
	C41.673004,74.730904 44.417721,75.676987 47.563957,74.037552 
	C44.958344,78.303581 43.254185,78.440315 38.981026,74.362015 
z"/>
<path fill="#D4D4D5" opacity="1.000000" stroke="none" 
	d="
M293.560059,101.676170 
	C290.983307,103.095192 291.456787,99.711655 289.333435,99.714111 
	C288.895538,99.501305 288.857025,99.100273 288.878418,98.401611 
	C289.778717,97.201797 290.607025,96.291420 290.981445,94.777649 
	C290.962219,93.641273 291.372528,93.137039 292.443542,92.924225 
	C292.958679,93.078232 293.204254,93.251678 293.678711,93.814392 
	C294.665283,96.582687 294.542725,98.924995 293.560059,101.676170 
z"/>
<path fill="#BE4B46" opacity="1.000000" stroke="none" 
	d="
M18.708860,70.227249 
	C19.293339,67.879608 20.491474,67.169022 22.296110,68.494926 
	C23.178555,69.143280 23.255434,70.362915 22.594637,71.137474 
	C21.128553,72.855957 19.789616,72.280243 18.708860,70.227249 
z"/>
<path fill="#343337" opacity="1.000000" stroke="none" 
	d="
M132.078339,89.581718 
	C130.710434,90.066292 129.397125,89.732956 128.091583,90.939384 
	C126.595528,90.587013 123.964897,92.014870 123.998383,89.570236 
	C124.030167,87.250671 126.451759,87.936897 127.914818,87.999260 
	C129.370728,88.061325 131.264679,87.051537 132.078339,89.581718 
z"/>
<path fill="#D9591E" opacity="1.000000" stroke="none" 
	d="
M21.747196,78.837326 
	C19.938211,80.690399 17.727097,80.080383 15.269782,79.309784 
	C17.065289,77.092178 19.257433,77.289658 21.747196,78.837326 
z"/>
<path fill="#B5582E" opacity="1.000000" stroke="none" 
	d="
M46.202808,67.994583 
	C44.244705,68.803139 42.065720,69.345261 39.486961,69.944839 
	C40.441952,66.383812 43.015900,66.461624 46.202808,67.994583 
z"/>
<path fill="#7E7E7F" opacity="1.000000" stroke="none" 
	d="
M221.712723,100.766739 
	C219.760193,100.576920 217.656723,100.087563 215.288116,99.360703 
	C217.567719,97.794815 219.723328,98.359474 221.712723,100.766739 
z"/>
<path fill="#2B93D3" opacity="1.000000" stroke="none" 
	d="
M182.373352,75.082352 
	C182.327072,73.696823 182.654068,72.373108 182.985748,70.707092 
	C185.800507,71.871918 185.738266,73.091904 182.373352,75.082352 
z"/>
<path fill="#0283CD" opacity="1.000000" stroke="none" 
	d="
M132.067642,71.467621 
	C133.203705,72.338577 134.374619,73.314957 136.517365,72.988350 
	C136.807831,75.751831 134.715195,74.901230 133.286804,74.826569 
	C131.219086,74.718506 131.851425,73.112419 132.067642,71.467621 
z"/>
<path fill="#777779" opacity="1.000000" stroke="none" 
	d="
M223.896606,110.326492 
	C222.857635,108.564507 223.083359,106.475891 223.505447,103.889771 
	C225.200287,105.525826 224.641800,107.793282 223.896606,110.326492 
z"/>
<path fill="#7E7E7F" opacity="1.000000" stroke="none" 
	d="
M129.475281,128.079636 
	C128.904327,126.371758 126.285683,126.330490 126.255829,123.975288 
	C126.657448,125.702026 131.394135,124.317665 129.475281,128.079636 
z"/>
<path fill="#7E7E7F" opacity="1.000000" stroke="none" 
	d="
M293.460907,94.237320 
	C293.033295,93.807426 292.944855,93.636276 292.784760,93.184952 
	C294.453156,91.719757 296.141815,91.120163 297.717285,93.651321 
	C297.850891,93.970360 297.402618,93.860016 297.180115,93.921333 
	C296.011444,94.807991 294.963379,95.006523 293.460907,94.237320 
z"/>
<path fill="#0283CD" opacity="1.000000" stroke="none" 
	d="
M234.733627,68.694473 
	C231.338516,68.727875 233.649887,66.339462 233.196518,64.940956 
	C233.558319,65.155632 233.920105,65.370308 234.503464,65.744209 
	C234.744904,66.701477 234.764801,67.499519 234.733627,68.694473 
z"/>
<path fill="#0283CD" opacity="1.000000" stroke="none" 
	d="
M68.320541,66.414383 
	C70.726036,66.860352 70.208740,68.287346 68.996056,70.007217 
	C67.939873,69.142685 68.154762,67.936264 68.320541,66.414383 
z"/>
<path fill="#7E7E7F" opacity="1.000000" stroke="none" 
	d="
M127.795525,115.222549 
	C126.953499,114.006783 126.889511,112.568832 128.126984,111.004066 
	C129.009094,112.268066 128.515793,113.617065 127.795525,115.222549 
z"/>
<path fill="#7E7E7F" opacity="1.000000" stroke="none" 
	d="
M129.145340,107.725433 
	C127.457703,106.511551 128.798950,105.137238 129.101746,103.394073 
	C129.295059,102.930305 129.413132,102.796043 129.744598,102.824196 
	C129.776917,104.480232 129.595810,105.973854 129.145340,107.725433 
z"/>
<path fill="#777779" opacity="1.000000" stroke="none" 
	d="
M126.032455,103.319122 
	C127.328018,104.392822 126.997078,105.670319 125.804420,107.037231 
	C124.933929,105.917198 125.394112,104.756767 126.032455,103.319122 
z"/>
<path fill="#7E7E7F" opacity="1.000000" stroke="none" 
	d="
M126.757996,121.267487 
	C125.961670,120.111008 125.947617,118.773651 127.008072,117.213417 
	C128.118622,118.403870 127.318642,119.714752 126.757996,121.267487 
z"/>
<path fill="#777779" opacity="1.000000" stroke="none" 
	d="
M127.225922,96.747665 
	C128.050659,97.962662 128.152954,99.406090 126.887405,100.972260 
	C125.937614,99.700394 126.572136,98.364227 127.225922,96.747665 
z"/>
<path fill="#2992D3" opacity="1.000000" stroke="none" 
	d="
M195.499268,54.310684 
	C196.582657,54.115395 197.857697,53.897148 197.639511,55.392635 
	C197.512711,56.261845 196.828461,56.799870 195.579254,56.186066 
	C195.334610,55.590866 195.331116,55.110806 195.499268,54.310684 
z"/>
<path fill="#0283CD" opacity="1.000000" stroke="none" 
	d="
M123.299118,54.548599 
	C123.931450,52.735023 124.796600,50.986084 125.974106,49.014046 
	C126.919235,50.245060 126.687271,51.729233 126.227127,53.607933 
	C125.767380,54.123470 125.520676,54.245007 124.861465,54.369667 
	C124.176407,54.579250 123.870735,54.659397 123.299118,54.548599 
z"/>
<path fill="#0283CD" opacity="1.000000" stroke="none" 
	d="
M163.450424,59.551979 
	C161.547012,58.881523 160.945496,57.847202 163.511887,56.852734 
	C163.716751,57.687332 163.662506,58.445007 163.450424,59.551979 
z"/>
<path fill="#777779" opacity="1.000000" stroke="none" 
	d="
M123.942993,115.277748 
	C125.220284,116.071030 124.948341,117.040733 123.720184,118.056152 
	C123.536736,117.270805 123.628838,116.400627 123.942993,115.277748 
z"/>
<path fill="#B5582E" opacity="1.000000" stroke="none" 
	d="
M19.037233,28.339558 
	C17.357334,27.634481 17.481071,26.346958 18.398584,24.785095 
	C18.621536,24.591759 18.832319,24.822868 18.934780,24.941031 
	C19.621649,25.974068 19.474314,26.972424 19.037233,28.339558 
z"/>
<path fill="#D4D4D5" opacity="1.000000" stroke="none" 
	d="
M178.830750,110.776108 
	C178.178055,111.237610 177.352783,111.457985 176.205200,111.595917 
	C176.411850,110.063744 177.358948,109.799980 178.830750,110.776108 
z"/>
<path fill="#777779" opacity="1.000000" stroke="none" 
	d="
M124.986526,109.286598 
	C126.294701,110.056335 125.939545,111.020691 124.828514,112.065063 
	C124.629791,111.289772 124.695602,110.414581 124.986526,109.286598 
z"/>
<path fill="#6C6C6E" opacity="1.000000" stroke="none" 
	d="
M130.094315,102.691223 
	C129.958023,102.986603 129.565048,103.012383 129.371033,103.038475 
	C129.040924,102.006905 128.905411,100.949364 130.096191,99.991203 
	C130.331879,100.710251 130.281250,101.553040 130.094315,102.691223 
z"/>
<path fill="#717173" opacity="1.000000" stroke="none" 
	d="
M290.651550,94.656006 
	C291.900970,96.288956 291.384338,97.621124 289.271545,98.317795 
	C289.406342,97.016518 289.874359,95.929077 290.651550,94.656006 
z"/>
<path fill="#777779" opacity="1.000000" stroke="none" 
	d="
M198.100647,123.672119 
	C199.100647,124.648880 198.733841,125.713173 197.547821,126.876755 
	C197.450241,126.000427 197.672150,124.957817 198.100647,123.672119 
z"/>
<path fill="#777779" opacity="1.000000" stroke="none" 
	d="
M137.000854,123.180389 
	C137.879791,123.461311 137.940460,124.030373 137.337799,124.836205 
	C136.479050,124.528450 136.626480,123.933151 137.000854,123.180389 
z"/>
<path fill="#777779" opacity="1.000000" stroke="none" 
	d="
M122.838242,121.215515 
	C124.003777,121.880699 123.697189,122.470818 122.380600,122.969910 
	C122.286308,122.506119 122.450012,121.963867 122.838242,121.215515 
z"/>
<path fill="#B35228" opacity="1.000000" stroke="none" 
	d="
M18.717358,28.822426 
	C18.802641,27.799595 18.899670,26.886076 19.016970,25.515875 
	C20.370184,26.101189 20.202766,27.328344 19.203316,28.823399 
	C18.929417,29.022419 18.729103,28.931740 18.717358,28.822426 
z"/>
<path fill="#717173" opacity="1.000000" stroke="none" 
	d="
M143.808136,126.813393 
	C143.415726,126.992241 143.239365,126.924713 143.085480,126.599335 
	C143.344131,126.198204 143.685791,125.684814 143.891266,125.734505 
	C144.530060,125.888992 144.262131,126.324379 143.808136,126.813393 
z"/>
<path fill="#717173" opacity="1.000000" stroke="none" 
	d="
M200.298233,128.971878 
	C200.239548,128.344131 200.488281,127.713585 200.972260,126.969315 
	C201.582336,127.723953 201.347412,128.418686 200.298233,128.971878 
z"/>
<path fill="#777779" opacity="1.000000" stroke="none" 
	d="
M138.059341,116.647713 
	C138.844711,117.188148 138.937943,117.977409 138.040802,118.967789 
	C137.807678,118.391739 137.843994,117.636375 138.059341,116.647713 
z"/>
<path fill="#717173" opacity="1.000000" stroke="none" 
	d="
M219.992645,111.255692 
	C221.092026,111.656952 220.867020,112.304199 220.005432,113.051964 
	C219.793106,112.588234 219.798218,112.032906 219.992645,111.255692 
z"/>
<path fill="#D4D4D5" opacity="1.000000" stroke="none" 
	d="
M173.837708,111.725853 
	C173.491913,112.220993 172.995712,112.500877 172.206482,112.737991 
	C172.123886,111.730080 172.499023,111.011574 173.837708,111.725853 
z"/>
<path fill="#777779" opacity="1.000000" stroke="none" 
	d="
M188.980072,110.813400 
	C188.125977,110.448151 188.120590,109.863449 188.847168,109.104416 
	C189.641708,109.518532 189.364471,110.093758 188.980072,110.813400 
z"/>
<path fill="#6C6C6E" opacity="1.000000" stroke="none" 
	d="
M131.162689,95.784119 
	C129.960770,95.267479 130.207947,94.615410 131.330063,93.948227 
	C131.515030,94.457146 131.441925,95.016914 131.162689,95.784119 
z"/>
<path fill="#2C93D3" opacity="1.000000" stroke="none" 
	d="
M198.518707,65.504456 
	C198.093185,64.870117 197.933090,64.062378 198.821808,63.194481 
	C198.970657,63.795059 198.871353,64.562248 198.518707,65.504456 
z"/>
<path fill="#2C93D3" opacity="1.000000" stroke="none" 
	d="
M198.045807,69.796722 
	C197.158539,69.412170 197.023407,68.821327 197.975677,68.034103 
	C198.223099,68.484726 198.219910,69.061836 198.045807,69.796722 
z"/>
<path fill="#626264" opacity="1.000000" stroke="none" 
	d="
M300.303497,95.763885 
	C299.257996,96.663841 299.073151,95.835129 299.034790,94.503670 
	C299.450562,94.566406 299.782471,95.043274 300.303497,95.763885 
z"/>
<path fill="#717173" opacity="1.000000" stroke="none" 
	d="
M222.162079,118.774689 
	C221.816010,118.803581 221.578033,118.621155 221.340057,118.438721 
	C221.456879,118.324059 221.573715,118.209396 221.937714,118.095543 
	C222.184875,118.096352 222.270172,118.563362 222.162079,118.774689 
z"/>
<path fill="#2B93D3" opacity="1.000000" stroke="none" 
	d="
M124.657562,54.542618 
	C124.702812,54.281528 124.956673,54.190266 125.612305,54.050468 
	C125.892700,54.660862 125.463402,54.822296 124.657562,54.542618 
z"/>
<path fill="#B5582E" opacity="1.000000" stroke="none" 
	d="
M46.976448,68.699814 
	C46.861012,68.883316 46.851368,69.695709 46.651390,68.725845 
	C46.809826,68.583336 46.936314,68.642639 46.976448,68.699814 
z"/>
<path fill="#89898A" opacity="1.000000" stroke="none" 
	d="
M293.131317,94.433105 
	C294.144257,93.984001 295.166718,93.989426 296.573395,93.988754 
	C296.802582,96.819511 298.920258,100.486488 293.805237,101.871033 
	C293.450317,102.100769 293.488129,102.078911 293.497040,102.098793 
	C292.604340,99.747704 293.070709,97.307663 293.131317,94.433105 
z"/>
<path fill="#0283CD" opacity="1.000000" stroke="none" 
	d="
M236.157562,48.713745 
	C236.046143,51.146896 235.881470,53.562202 235.716797,55.977512 
	C234.958679,53.708912 234.558777,51.462868 235.857498,48.914673 
	C236.138153,48.588825 236.104309,48.695908 236.157562,48.713745 
z"/>
<path fill="#E9E9EA" opacity="1.000000" stroke="none" 
	d="
M96.405670,112.203354 
	C96.389885,108.293365 100.978813,98.884956 104.747475,94.533188 
	C105.527374,100.341034 106.233521,105.599617 106.937477,111.272125 
	C103.713051,113.967972 100.224548,112.959831 96.405670,112.203354 
z"/>
<path fill="#343337" opacity="1.000000" stroke="none" 
	d="
M95.945343,112.229553 
	C99.364159,111.853508 102.698036,111.808136 106.483597,111.724411 
	C104.981415,114.516678 98.777969,115.006332 95.945343,112.229553 
z"/>
<path fill="#F4F4F4" opacity="1.000000" stroke="none" 
	d="
M280.133240,111.447830 
	C276.219147,111.504654 272.733978,111.455734 269.256256,111.594345 
	C266.652283,111.698128 265.759064,110.893555 267.290375,108.521736 
	C269.777100,104.670029 272.973816,102.017555 277.935638,102.655655 
	C280.355133,102.966805 281.885864,104.512177 282.427368,106.740295 
	C282.868652,108.556107 283.603302,110.837997 280.133240,111.447830 
z"/>
<path fill="#343337" opacity="1.000000" stroke="none" 
	d="
M278.265137,100.094467 
	C277.673035,102.059639 276.248871,100.644524 274.830780,100.830963 
	C275.819092,99.552986 276.977600,100.239502 278.265137,100.094467 
z"/>
<path fill="#F2F2F2" opacity="1.000000" stroke="none" 
	d="
M183.645996,113.775764 
	C184.237183,118.449974 181.789688,121.610016 178.833069,124.338737 
	C176.816757,126.199631 174.249390,127.062523 171.435562,125.971077 
	C169.425766,125.191513 168.839462,123.563789 168.932190,121.566994 
	C169.075165,118.488029 170.964081,116.717583 173.609314,115.734657 
	C175.461197,115.046547 177.448395,114.722633 179.705536,114.037102 
	C181.065659,113.141762 182.145126,112.947906 183.645996,113.775764 
z"/>
<path fill="#343337" opacity="1.000000" stroke="none" 
	d="
M183.927277,113.691284 
	C182.934250,114.013535 181.876450,113.990768 180.427261,113.903069 
	C180.979172,111.089256 182.315918,111.401550 183.927277,113.691284 
z"/>
<path fill="#343337" opacity="1.000000" stroke="none" 
	d="
M142.163696,89.956146 
	C141.224808,89.899132 139.825714,90.296631 139.945297,89.504333 
	C140.096802,88.500504 141.473022,89.119728 142.656097,88.986076 
	C142.800507,89.273483 142.596954,89.550644 142.163696,89.956146 
z"/>
</svg>