<svg xmlns="http://www.w3.org/2000/svg" fill="none" viewBox="0 0 64 64" height="32" width="32">
  <g id="machine-learning--learning-artificial-robotics-intelligence-machine-technology">
    <path id="Union" fill="#ffffff" fill-rule="evenodd"
      d="M0.037667428571428574 8.292982857142857C0.037667428571428574 3.733856 3.7335771428571425 0.03794642285714286 8.292708571428571 0.03794642285714286S16.54774857142857 3.733856 16.54774857142857 8.292982857142857c0 1.0159542857142856 -0.18349714285714286 1.9890285714285714 -0.5192228571428571 2.8879085714285715L29.112319999999997 24.26468571428571c0.8988342857142856 -0.3356342857142857 1.8718171428571426 -0.5191314285714285 2.887725714285714 -0.5191314285714285 1.0158171428571428 0 1.988845714285714 0.18349714285714286 2.8876342857142854 0.5191314285714285l13.083977142857142 -13.083839999999999c-0.33599999999999997 -0.8988342857142856 -0.5193142857142857 -1.8719085714285715 -0.5193142857142857 -2.887862857142857 0 -4.559126857142857 3.6959999999999997 -8.255036434285714 8.255085714285714 -8.255036434285714 4.559085714285714 0 8.255085714285714 3.695909577142857 8.255085714285714 8.255036434285714 0 4.559131428571429 -3.6959999999999997 8.25504 -8.255085714285714 8.25504 -1.0157714285714285 0 -1.9881142857142857 -0.18336 -2.8868571428571426 -0.5187657142857143L39.73618285714286 29.113645714285713c0.3354971428571428 0.8986057142857142 0.5189028571428571 1.87136 0.5189028571428571 2.886948571428571 0 4.559131428571429 -3.6959085714285713 8.25504 -8.25504 8.25504 -1.01568 0 -1.9885257142857142 -0.18345142857142854 -2.8871771428571424 -0.5189485714285714l-13.083977142857142 13.083885714285714c0.33545142857142857 0.8987428571428571 0.5188571428571428 1.871542857142857 0.5188571428571428 2.8868571428571426 0 4.559542857142857 -3.6959085714285713 8.255085714285714 -8.25504 8.255085714285714S0.037667428571428574 60.26697142857143 0.037667428571428574 55.707428571428565c0 -4.559085714285714 3.695909714285714 -8.255085714285714 8.255041142857143 -8.255085714285714 1.0158628571428572 0 1.988845714285714 0.18377142857142856 2.88768 0.5193142857142857l13.083657142857142 -13.083611428571427c-0.3355885714285714 -0.8987428571428571 -0.5190857142857143 -1.87168 -0.5190857142857143 -2.8874514285714286 0 -1.0155885714285713 0.18340571428571428 -1.9882971428571428 0.5188571428571428 -2.886902857142857L11.179428571428572 16.029257142857144c-0.89856 0.3354057142857143 -1.871222857142857 0.5187657142857143 -2.8867199999999995 0.5187657142857143 -4.559131428571429 0 -8.255041142857143 -3.6959085714285713 -8.255041142857143 -8.25504ZM32.00004571428571 0.03794642285714286c-4.559177142857142 0 -8.255085714285714 3.695909577142857 -8.255085714285714 8.255036434285714 0 4.559131428571429 3.6959085714285713 8.25504 8.255085714285714 8.25504 4.559131428571429 0 8.25504 -3.6959085714285713 8.25504 -8.25504 0 -4.559126857142857 -3.6959085714285713 -8.255036434285714 -8.25504 -8.255036434285714ZM8.292708571428571 23.745554285714285c-4.559131428571429 0 -8.255041142857143 3.6959085714285713 -8.255041142857143 8.25504S3.7335771428571425 40.25563428571429 8.292708571428571 40.25563428571429s8.25504 -3.6959085714285713 8.25504 -8.25504 -3.6959085714285713 -8.25504 -8.25504 -8.25504Zm47.414719999999996 0c-4.559085714285714 0 -8.255085714285714 3.6959085714285713 -8.255085714285714 8.25504s3.6959999999999997 8.25504 8.255085714285714 8.25504c4.559085714285714 0 8.255085714285714 -3.6959085714285713 8.255085714285714 -8.25504s-3.6959999999999997 -8.25504 -8.255085714285714 -8.25504ZM32.00004571428571 47.45234285714285c-4.559177142857142 0 -8.255085714285714 3.6959999999999997 -8.255085714285714 8.255085714285714 0 4.559542857142857 3.6959085714285713 8.255085714285714 8.255085714285714 8.255085714285714 4.559131428571429 0 8.25504 -3.695542857142857 8.25504 -8.255085714285714 0 -4.559085714285714 -3.6959085714285713 -8.255085714285714 -8.25504 -8.255085714285714Zm23.707382857142857 0c-4.559085714285714 0 -8.255085714285714 3.6959999999999997 -8.255085714285714 8.255085714285714 0 4.559542857142857 3.6959999999999997 8.255085714285714 8.255085714285714 8.255085714285714 4.559085714285714 0 8.255085714285714 -3.695542857142857 8.255085714285714 -8.255085714285714 0 -4.559085714285714 -3.6959999999999997 -8.255085714285714 -8.255085714285714 -8.255085714285714Z"
      clip-rule="evenodd" stroke-width="4.571428571428571">
</path>
  </g>
</svg>