<?xml version="1.0" encoding="UTF-8"?><svg id="Layer_2" xmlns="http://www.w3.org/2000/svg" viewBox="0 0 101.41 30.01"><g id="Layer_1-2" focusable="false"><path d="M8.09,4.52c3,0,4.44,2.06,4.5,4.08h3.61c.06-3.73-2.91-7.26-7.89-7.29C3.69,1.27,.56,3.97,.56,7.38c0,3.69,2.59,5.3,6.29,6.27,2.36,.61,5.3,.9,5.3,3.34,0,1.54-1.05,3.05-3.8,3.05s-4.63-1.29-4.57-4.08H.01c-.22,3.89,2.59,7.26,8.59,7.23,4.63-.03,7.38-2.73,7.38-6.17,0-4.15-3.22-5.46-5.43-6.07-2.17-.61-6.26-1.03-6.29-3.6-.03-1.73,1.31-2.83,3.83-2.83Z"/><path d="M28.27,16.21c0,2.47-1.88,3.69-3.45,3.69-1.31,0-2.62-.84-2.62-3.09V7.05h-3.64v10.31c0,3.89,2.24,5.95,5.37,5.95,1.95,0,3.67-1.06,4.5-2.76v2.38h3.48V7.05h-3.64v9.16Z"/><path d="M43.28,6.67c-2.39,0-3.99,1.35-4.28,2.54V.5h-3.67V22.93h3.48v-2.47c.45,1.48,2.33,2.86,4.5,2.86,5.24,0,7.54-4.56,7.54-8.35,0-4.08-2.37-8.29-7.57-8.29Zm-.32,13.21c-2.65,0-4.06-1.99-4.06-4.43v-1.23c0-2.67,1.82-4.15,4.06-4.15,2.84,0,4.12,2.67,4.12,4.88s-.89,4.92-4.12,4.92h0Z"/><path d="M53.26,23.61c0,2.25-1.09,3.09-2.59,3.02l-.64-.03v3.37l.51,.03c3.86,.16,6.39-1.9,6.39-5.82V7.05h-3.67V23.61Z"/><path d="M66.83,6.67c-4.69,0-7.54,3.47-7.54,8.29,0,4.56,2.84,8.32,7.79,8.32,3.93,0,6.23-2.35,6.87-5.4h-3.58c-.54,1.83-2.04,2.22-3.32,2.22-2.49,0-4.15-1.96-4.06-4.27h11.14l.03-1.06c0-6.11-4.05-8.1-7.34-8.1Zm-3.67,6.52c.19-1.96,1.63-3.53,3.77-3.53,1.88,0,3.45,1.48,3.45,3.53h-7.22Z"/><path d="M83.46,19.88c-2.04,0-3.9-1.35-3.9-4.88s1.88-4.95,3.9-4.95c1.05,0,2.68,.26,3.19,2.38h3.77c-.29-3.56-3.51-5.75-6.93-5.75-4.89,0-7.7,3.76-7.7,8.29s2.59,8.26,7.66,8.29c3.64,.03,6.42-2.06,6.99-5.75h-3.77c-.67,2.15-2.24,2.37-3.23,2.37Z"/><path d="M93.59,17.79c0,3.63,2.27,5.24,5.91,5.24,.64,0,1.28-.04,1.92-.13v-3.15c-.41,.03-.8,.06-1.21,.06-2.2,0-3-.55-3-2.41v-7.17h3.69v-3.18h-3.69V2.58h-3.61V7.05h-2.36v3.18h2.36v7.55Z"/><path d="M57.31,3.46c.56-1.23,.02-2.68-1.2-3.24-1.22-.56-2.66-.02-3.22,1.21-.56,1.23-.02,2.68,1.2,3.24,1.22,.56,2.66,.02,3.22-1.21Z"/></g></svg>