<svg version="1.1" id="Layer_1" xmlns="http://www.w3.org/2000/svg" xmlns:xlink="http://www.w3.org/1999/xlink" x="0px" y="0px"
	 width="100%" viewBox="0 0 500 500" enable-background="new 0 0 500 500" xml:space="preserve">
<path fill="#FFFFFF" opacity="1.000000" stroke="none" 
	d="
M278.000000,501.000000 
	C185.333359,501.000000 93.166710,501.000000 1.000049,501.000000 
	C1.000033,334.333405 1.000033,167.666794 1.000016,1.000139 
	C167.666565,1.000093 334.333130,1.000093 500.999756,1.000046 
	C500.999847,167.666519 500.999847,334.333038 500.999939,500.999786 
	C426.833344,501.000000 352.666656,501.000000 278.000000,501.000000 
M46.581951,63.230217 
	C46.545185,63.558025 46.508423,63.885830 46.446583,65.121407 
	C46.446583,189.542252 46.446583,313.963074 46.446583,438.668945 
	C183.557220,438.668945 320.057343,438.668945 456.929382,438.668945 
	C456.929382,436.689972 456.929352,435.049194 456.929352,433.408386 
	C456.929291,311.772308 456.929779,190.136261 456.923462,68.500191 
	C456.923401,67.003296 456.836548,65.506393 456.890900,63.487377 
	C456.591614,63.394875 456.292328,63.302368 455.063965,63.087318 
	C320.254486,63.081570 185.444992,63.075428 50.635513,63.076477 
	C49.471764,63.076485 48.308018,63.173187 46.581951,63.230217 
z"/>
<path fill="#B01F2F" opacity="1.000000" stroke="none" 
	d="
M456.790222,64.009499 
	C456.836548,65.506393 456.923401,67.003296 456.923462,68.500191 
	C456.929779,190.136261 456.929291,311.772308 456.929352,433.408386 
	C456.929352,435.049194 456.929382,436.689972 456.929382,438.668945 
	C320.057343,438.668945 183.557220,438.668945 46.446583,438.668945 
	C46.446583,313.963074 46.446583,189.542252 46.649429,64.569717 
	C47.031322,63.783661 47.128654,63.519238 47.144268,63.224747 
	C48.308018,63.173187 49.471764,63.076485 50.635513,63.076477 
	C185.444992,63.075428 320.254486,63.081570 455.613708,63.324356 
	C456.322540,63.780403 456.531464,63.929771 456.790222,64.009499 
M110.523605,120.990471 
	C110.318916,120.986481 110.114235,120.982483 109.090317,121.041161 
	C108.393745,122.957413 107.090263,124.872925 107.087929,126.790024 
	C106.986610,209.892609 107.000526,292.995331 107.001427,376.098022 
	C107.001442,377.263702 106.633492,378.633667 107.120880,379.541138 
	C107.675659,380.574097 108.999123,381.194244 110.926994,382.025513 
	C133.910843,382.001953 156.894684,381.978394 180.724838,381.941956 
	C181.483231,380.085876 182.902542,378.230652 182.904984,376.373566 
	C183.014709,293.008362 183.000046,209.642975 182.999435,126.277611 
	C182.999420,125.279274 183.377762,123.968391 182.887955,123.362106 
	C182.282288,122.612442 180.952454,122.447823 179.443176,122.022583 
	C179.129166,121.846367 178.959457,121.578674 178.464478,120.517769 
	C177.667511,120.346649 176.870728,120.027184 176.073532,120.026093 
	C155.448624,119.997772 134.823624,119.988792 114.198799,120.040878 
	C113.123543,120.043587 112.049721,120.615105 111.149933,121.039177 
	C111.149933,121.039177 111.085938,121.239677 110.523605,120.990471 
M204.650711,181.250458 
	C205.103790,181.240417 205.556885,181.230377 206.926270,181.435654 
	C219.694931,181.444107 232.463913,181.402359 245.232147,181.480484 
	C252.498764,181.524948 259.764191,181.765350 267.016235,182.865845 
	C267.011230,232.420029 267.005890,281.974213 267.001465,331.528412 
	C267.000122,346.494446 266.982910,361.460571 267.023468,376.426483 
	C267.028839,378.414581 266.180695,381.106079 270.436554,381.582184 
	C271.071442,381.744354 271.706116,382.047485 272.341217,382.048279 
	C293.932648,382.075226 315.524139,382.092041 337.115387,382.027313 
	C338.334625,382.023651 339.551788,381.316315 341.465973,380.460693 
	C341.644775,379.165833 341.979614,377.871002 341.979950,376.576111 
	C341.996765,312.044281 341.984863,247.512436 341.972504,182.386780 
	C341.954254,182.189667 341.936035,181.992554 342.691528,181.519684 
	C364.734619,181.543152 386.777679,181.566620 409.177521,181.876175 
	C409.470947,181.606216 409.764343,181.336243 410.376709,180.885117 
	C410.376709,180.885117 410.741943,180.919403 411.577087,180.818604 
	C412.052307,179.876526 412.937653,178.936371 412.942047,177.992111 
	C413.024994,160.162109 413.048798,142.331223 412.898712,124.502098 
	C412.889160,123.367630 411.360840,122.245949 410.246246,121.253456 
	C410.246246,121.253456 410.012268,121.031433 409.437744,120.417244 
	C408.128845,120.278641 406.819977,120.019165 405.511047,120.018768 
	C340.239410,119.999039 274.967743,119.994957 209.696121,120.040482 
	C208.123062,120.041580 206.550400,120.623024 205.154251,121.048126 
	C205.154251,121.048126 205.088989,121.248215 204.571442,121.008926 
	C204.382080,121.006271 204.192719,121.003624 203.208176,121.185059 
	C202.801544,122.669258 202.086777,124.144691 202.044250,125.639252 
	C201.898422,130.764771 201.988220,135.897018 201.988220,141.026688 
	C201.988190,153.271729 201.937088,165.517349 202.074493,177.760849 
	C202.086975,178.872269 203.311356,179.970108 204.650711,181.250458 
z"/>
<path fill="#BA3B49" opacity="1.000000" stroke="none" 
	d="
M456.840546,63.748436 
	C456.531464,63.929771 456.322540,63.780403 456.078247,63.385628 
	C456.292328,63.302368 456.591614,63.394875 456.840546,63.748436 
z"/>
<path fill="#D4928D" opacity="1.000000" stroke="none" 
	d="
M46.863110,63.227478 
	C47.128654,63.519238 47.031322,63.783661 46.661964,64.115829 
	C46.508423,63.885830 46.545185,63.558025 46.863110,63.227478 
z"/>
<path fill="#FFFFFF" opacity="1.000000" stroke="none" 
	d="
M340.769897,380.936493 
	C339.551788,381.316315 338.334625,382.023651 337.115387,382.027313 
	C315.524139,382.092041 293.932648,382.075226 272.341217,382.048279 
	C271.706116,382.047485 271.071442,381.744354 270.208862,380.826965 
	C269.997467,315.350433 270.013977,250.629105 270.027466,185.907791 
	C270.027649,185.076843 270.318176,183.936752 269.893860,183.484482 
	C269.186310,182.730377 268.009430,182.416656 267.030151,181.917511 
	C259.764191,181.765350 252.498764,181.524948 245.232147,181.480484 
	C232.463913,181.402359 219.694931,181.444107 206.368408,181.062363 
	C205.322037,180.450317 204.833542,180.211548 204.230713,179.518890 
	C204.152664,160.059525 204.188934,141.054031 204.424515,121.986130 
	C204.866928,121.759209 205.021973,121.534042 205.088989,121.248215 
	C205.088989,121.248215 205.154251,121.048126 205.525330,121.100044 
	C273.106293,121.168365 340.316132,121.185379 407.526001,121.194099 
	C408.354767,121.194206 409.183502,121.088005 410.012268,121.031433 
	C410.012268,121.031433 410.246246,121.253456 410.477631,121.640617 
	C410.720001,141.658325 410.730957,161.288864 410.741943,180.919403 
	C410.741943,180.919403 410.376709,180.885117 409.877991,181.035919 
	C409.193115,181.321152 409.006958,181.455612 408.820770,181.590088 
	C386.777679,181.566620 364.734619,181.543152 341.958069,181.635712 
	C341.086395,182.153168 340.948151,182.554611 340.693298,183.415665 
	C340.566925,248.570786 340.556213,313.266266 340.556702,377.961761 
	C340.556702,378.953339 340.695740,379.944916 340.769897,380.936493 
z"/>
<path fill="#FFFFFF" opacity="1.000000" stroke="none" 
	d="
M179.878525,381.954834 
	C156.894684,381.978394 133.910843,382.001953 110.449425,381.541870 
	C109.965500,295.878418 109.958435,210.698654 109.960251,125.518875 
	C109.960274,124.358452 110.072365,123.198021 110.347992,121.985840 
	C110.835480,121.776031 111.009514,121.544571 111.085938,121.239677 
	C111.085938,121.239677 111.149933,121.039177 111.520897,121.095322 
	C134.239258,121.174149 156.586655,121.196823 178.934052,121.219498 
	C178.959457,121.578674 179.129166,121.846367 179.707260,122.492653 
	C179.975876,185.628128 179.990356,248.293549 179.979797,310.958954 
	C179.975815,334.624237 179.913986,358.289551 179.878525,381.954834 
z"/>
<path fill="#AB1224" opacity="1.000000" stroke="none" 
	d="
M110.132156,122.037598 
	C110.072365,123.198021 109.960274,124.358452 109.960251,125.518875 
	C109.958435,210.698654 109.965500,295.878418 109.980171,381.526001 
	C108.999123,381.194244 107.675659,380.574097 107.120880,379.541138 
	C106.633492,378.633667 107.001442,377.263702 107.001427,376.098022 
	C107.000526,292.995331 106.986610,209.892609 107.087929,126.790024 
	C107.090263,124.872925 108.393745,122.957413 109.494324,121.287552 
	C109.976280,121.701836 110.054222,121.869713 110.132156,122.037598 
z"/>
<path fill="#AD1626" opacity="1.000000" stroke="none" 
	d="
M180.301682,381.948395 
	C179.913986,358.289551 179.975815,334.624237 179.979797,310.958954 
	C179.990356,248.293549 179.975876,185.628128 179.953430,122.496574 
	C180.952454,122.447823 182.282288,122.612442 182.887955,123.362106 
	C183.377762,123.968391 182.999420,125.279274 182.999435,126.277611 
	C183.000046,209.642975 183.014709,293.008362 182.904984,376.373566 
	C182.902542,378.230652 181.483231,380.085876 180.301682,381.948395 
z"/>
<path fill="#AD1626" opacity="1.000000" stroke="none" 
	d="
M267.023193,182.391663 
	C268.009430,182.416656 269.186310,182.730377 269.893860,183.484482 
	C270.318176,183.936752 270.027649,185.076843 270.027466,185.907791 
	C270.013977,250.629105 269.997467,315.350433 269.885315,380.531250 
	C266.180695,381.106079 267.028839,378.414581 267.023468,376.426483 
	C266.982910,361.460571 267.000122,346.494446 267.001465,331.528412 
	C267.005890,281.974213 267.011230,232.420029 267.023193,182.391663 
z"/>
<path fill="#B53D38" opacity="1.000000" stroke="none" 
	d="
M409.725006,120.724335 
	C409.183502,121.088005 408.354767,121.194206 407.526001,121.194099 
	C340.316132,121.185379 273.106293,121.168365 205.436981,121.042877 
	C206.550400,120.623024 208.123062,120.041580 209.696121,120.040482 
	C274.967743,119.994957 340.239410,119.999039 405.511047,120.018768 
	C406.819977,120.019165 408.128845,120.278641 409.725006,120.724335 
z"/>
<path fill="#AD1626" opacity="1.000000" stroke="none" 
	d="
M341.117920,380.698608 
	C340.695740,379.944916 340.556702,378.953339 340.556702,377.961761 
	C340.556213,313.266266 340.566925,248.570786 340.984741,183.429474 
	C341.587219,182.982651 341.781677,182.981613 341.976135,182.980591 
	C341.984863,247.512436 341.996765,312.044281 341.979950,376.576111 
	C341.979614,377.871002 341.644775,379.165833 341.117920,380.698608 
z"/>
<path fill="#AB1224" opacity="1.000000" stroke="none" 
	d="
M204.225204,122.048546 
	C204.188934,141.054031 204.152664,160.059525 204.102783,179.782471 
	C204.050446,180.691376 204.011688,180.882812 203.972946,181.074249 
	C203.311356,179.970108 202.086975,178.872269 202.074493,177.760849 
	C201.937088,165.517349 201.988190,153.271729 201.988220,141.026688 
	C201.988220,135.897018 201.898422,130.764771 202.044250,125.639252 
	C202.086777,124.144691 202.801544,122.669258 203.595581,121.368805 
	C204.063721,121.717888 204.144455,121.883217 204.225204,122.048546 
z"/>
<path fill="#AB1224" opacity="1.000000" stroke="none" 
	d="
M411.159485,180.869003 
	C410.730957,161.288864 410.720001,141.658325 410.624054,121.573044 
	C411.360840,122.245949 412.889160,123.367630 412.898712,124.502098 
	C413.048798,142.331223 413.024994,160.162109 412.942047,177.992111 
	C412.937653,178.936371 412.052307,179.876526 411.159485,180.869003 
z"/>
<path fill="#B53D38" opacity="1.000000" stroke="none" 
	d="
M178.699265,120.868637 
	C156.586655,121.196823 134.239258,121.174149 111.433548,121.036644 
	C112.049721,120.615105 113.123543,120.043587 114.198799,120.040878 
	C134.823624,119.988792 155.448624,119.997772 176.073532,120.026093 
	C176.870728,120.027184 177.667511,120.346649 178.699265,120.868637 
z"/>
<path fill="#F9EFED" opacity="1.000000" stroke="none" 
	d="
M204.311829,181.162354 
	C204.011688,180.882812 204.050446,180.691376 204.217102,180.236374 
	C204.833542,180.211548 205.322037,180.450317 205.910248,180.954712 
	C205.556885,181.230377 205.103790,181.240417 204.311829,181.162354 
z"/>
<path fill="#E7C6C0" opacity="1.000000" stroke="none" 
	d="
M204.424515,121.986130 
	C204.144455,121.883217 204.063721,121.717888 203.993195,121.276772 
	C204.192719,121.003624 204.382080,121.006271 204.830215,121.128571 
	C205.021973,121.534042 204.866928,121.759209 204.424515,121.986130 
z"/>
<path fill="#E7C6C0" opacity="1.000000" stroke="none" 
	d="
M110.347992,121.985840 
	C110.054222,121.869713 109.976280,121.701836 109.903946,121.256226 
	C110.114235,120.982483 110.318916,120.986481 110.804771,121.115074 
	C111.009514,121.544571 110.835480,121.776031 110.347992,121.985840 
z"/>
<path fill="#D4928D" opacity="1.000000" stroke="none" 
	d="
M408.999146,181.733124 
	C409.006958,181.455612 409.193115,181.321152 409.718536,181.126495 
	C409.764343,181.336243 409.470947,181.606216 408.999146,181.733124 
z"/>
<path fill="#B53D38" opacity="1.000000" stroke="none" 
	d="
M341.974304,182.683685 
	C341.781677,182.981613 341.587219,182.982651 341.101349,182.969849 
	C340.948151,182.554611 341.086395,182.153168 341.571228,181.773590 
	C341.936035,181.992554 341.954254,182.189667 341.974304,182.683685 
z"/>
</svg>